G04*
G04 #@! TF.GenerationSoftware,Altium Limited,Altium Designer,19.1.7 (138)*
G04*
G04 Layer_Color=32768*
%FSLAX44Y44*%
%MOMM*%
G71*
G01*
G75*
%ADD66C,0.1000*%
%ADD67C,0.0500*%
D66*
X487760Y868680D02*
X497760D01*
X492760Y863680D02*
Y873680D01*
X500760Y854680D02*
Y882680D01*
X484760Y854680D02*
Y882680D01*
X500760D01*
X484760Y854680D02*
X500760D01*
X523240Y871550D02*
Y881050D01*
X518490Y876300D02*
X527990D01*
X511240Y870800D02*
X535240D01*
X511240Y881800D02*
X535240D01*
Y870800D02*
Y881800D01*
X511240Y870800D02*
Y881800D01*
X546070Y868300D02*
Y884300D01*
X574070Y868300D02*
Y884300D01*
X546070D02*
X574070D01*
X546070Y868300D02*
X574070D01*
X555070Y876300D02*
X565070D01*
X560070Y871300D02*
Y881300D01*
X669410Y835740D02*
Y845740D01*
X664410Y840740D02*
X674410D01*
X655410Y832740D02*
X683410D01*
X655410Y848740D02*
X683410D01*
X655410Y832740D02*
Y848740D01*
X683410Y832740D02*
Y848740D01*
X814070Y861140D02*
Y871140D01*
X809070Y866140D02*
X819070D01*
X794070Y856640D02*
X834070D01*
X794070Y875640D02*
X834070D01*
X794070Y856640D02*
Y875640D01*
X834070Y856640D02*
Y875640D01*
X705510Y1045360D02*
X724510D01*
X705510Y1005360D02*
X724510D01*
Y1045360D01*
X705510Y1005360D02*
Y1045360D01*
X715010Y1020360D02*
Y1030360D01*
X710010Y1025360D02*
X720010D01*
X811530Y938610D02*
Y948610D01*
X806530Y943610D02*
X816530D01*
X784860Y1016080D02*
Y1026080D01*
X779860Y1021080D02*
X789860D01*
X834010Y986760D02*
X850010D01*
X834010Y1014760D02*
X850010D01*
X834010Y986760D02*
Y1014760D01*
X850010Y986760D02*
Y1014760D01*
X842010Y995760D02*
Y1005760D01*
X837010Y1000760D02*
X847010D01*
X685770Y1018160D02*
Y1034160D01*
X713770Y1018160D02*
Y1034160D01*
X685770Y1018160D02*
X713770D01*
X685770Y1034160D02*
X713770D01*
X694770Y1026160D02*
X704770D01*
X699770Y1021160D02*
Y1031160D01*
X709900Y919100D02*
Y935100D01*
X737900Y919100D02*
Y935100D01*
X709900Y919100D02*
X737900D01*
X709900Y935100D02*
X737900D01*
X718900Y927100D02*
X728900D01*
X723900Y922100D02*
Y932100D01*
X628840Y825810D02*
Y832810D01*
X610840Y825810D02*
Y832810D01*
X628840D01*
X610840Y825810D02*
X628840D01*
X616840Y829310D02*
X622840D01*
X619840Y826310D02*
Y832310D01*
X729010Y832740D02*
Y848740D01*
X701010Y832740D02*
Y848740D01*
X729010D01*
X701010Y832740D02*
X729010D01*
X710010Y840740D02*
X720010D01*
X715010Y835740D02*
Y845740D01*
X720660Y757770D02*
Y768770D01*
X696660Y757770D02*
Y768770D01*
X720660D01*
X696660Y757770D02*
X720660D01*
X703910Y763270D02*
X713410D01*
X708660Y758520D02*
Y768020D01*
X675640Y785060D02*
Y795060D01*
X670640Y790060D02*
X680640D01*
X697200Y731140D02*
Y747140D01*
X725200Y731140D02*
Y747140D01*
X697200Y731140D02*
X725200D01*
X697200Y747140D02*
X725200D01*
X706200Y739140D02*
X716200D01*
X711200Y734140D02*
Y744140D01*
X755930Y729540D02*
X790930D01*
X755930Y799540D02*
X790930D01*
Y729540D02*
Y799540D01*
X755930Y729540D02*
Y799540D01*
X773430Y759540D02*
Y769540D01*
X768430Y764540D02*
X778430D01*
X763930Y955360D02*
X782930D01*
X763930Y995360D02*
X782930D01*
Y955360D02*
Y995360D01*
X763930Y955360D02*
Y995360D01*
X773430Y970360D02*
Y980360D01*
X768430Y975360D02*
X778430D01*
X715100Y875680D02*
Y891680D01*
X743100Y875680D02*
Y891680D01*
X715100D02*
X743100D01*
X715100Y875680D02*
X743100D01*
X724100Y883680D02*
X734100D01*
X729100Y878680D02*
Y888680D01*
X453450Y871240D02*
Y881240D01*
X448450Y876240D02*
X458450D01*
X610840Y839780D02*
Y846780D01*
X628840Y839780D02*
Y846780D01*
X610840Y839780D02*
X628840D01*
X610840Y846780D02*
X628840D01*
X616840Y843280D02*
X622840D01*
X619840Y840280D02*
Y846280D01*
X655170Y731140D02*
Y747140D01*
X683170Y731140D02*
Y747140D01*
X655170Y731140D02*
X683170D01*
X655170Y747140D02*
X683170D01*
X664170Y739140D02*
X674170D01*
X669170Y734140D02*
Y744140D01*
X595250Y975330D02*
X611250D01*
X595250Y1003330D02*
X611250D01*
Y975330D02*
Y1003330D01*
X595250Y975330D02*
Y1003330D01*
X603250Y984330D02*
Y994330D01*
X598250Y989330D02*
X608250D01*
X612030Y1027740D02*
Y1034740D01*
X630030Y1027740D02*
Y1034740D01*
X612030Y1027740D02*
X630030D01*
X612030Y1034740D02*
X630030D01*
X618030Y1031240D02*
X624030D01*
X621030Y1028240D02*
Y1034240D01*
X629950Y1013770D02*
Y1020770D01*
X611950Y1013770D02*
Y1020770D01*
X629950D01*
X611950Y1013770D02*
X629950D01*
X617951Y1017270D02*
X623951D01*
X620951Y1014270D02*
Y1020270D01*
X671830Y964010D02*
Y974010D01*
X666830Y969010D02*
X676830D01*
X664180Y919100D02*
Y935100D01*
X692180Y919100D02*
Y935100D01*
X664180Y919100D02*
X692180D01*
X664180Y935100D02*
X692180D01*
X673180Y927100D02*
X683180D01*
X678180Y922100D02*
Y932100D01*
X772190Y754000D02*
Y770000D01*
X744190Y754000D02*
Y770000D01*
Y754000D02*
X772190D01*
X744190Y770000D02*
X772190D01*
X753190Y762000D02*
X763190D01*
X758190Y757000D02*
Y767000D01*
X756340Y804480D02*
X766340D01*
X761340Y799480D02*
Y809480D01*
X826160Y823910D02*
X845160D01*
X826160Y783910D02*
X845160D01*
Y823910D01*
X826160Y783910D02*
Y823910D01*
X835660Y798910D02*
Y808910D01*
X830660Y803910D02*
X840660D01*
X715860Y981010D02*
X726860D01*
X715860Y957010D02*
X726860D01*
X715860D02*
Y981010D01*
X726860Y957010D02*
Y981010D01*
X721360Y964260D02*
Y973760D01*
X716610Y969010D02*
X726110D01*
X702390Y956310D02*
X712390D01*
X707390Y951310D02*
Y961310D01*
X633310Y959420D02*
X644310D01*
X633310Y935420D02*
X644310D01*
Y959420D01*
X633310Y935420D02*
Y959420D01*
X638810Y942670D02*
Y952170D01*
X634060Y947420D02*
X643560D01*
X679070Y863570D02*
X695070D01*
X679070Y891570D02*
X695070D01*
X679070Y863570D02*
Y891570D01*
X695070Y863570D02*
Y891570D01*
X687070Y872570D02*
Y882570D01*
X682070Y877570D02*
X692070D01*
X642240Y863570D02*
X658240D01*
X642240Y891570D02*
X658240D01*
X642240Y863570D02*
Y891570D01*
X658240Y863570D02*
Y891570D01*
X650240Y872570D02*
Y882570D01*
X645240Y877570D02*
X655240D01*
D67*
X793530Y930110D02*
X829530D01*
X793530Y957110D02*
X829530D01*
Y930110D02*
Y957110D01*
X793530Y930110D02*
Y957110D01*
X764860Y1003080D02*
X804860D01*
X764860Y1039080D02*
X804860D01*
Y1003080D02*
Y1039080D01*
X764860Y1003080D02*
Y1039080D01*
X650140Y770060D02*
X701140D01*
X650140Y810060D02*
X701140D01*
X650140Y770060D02*
Y810060D01*
X701140Y770060D02*
Y810060D01*
X646330Y949010D02*
X697330D01*
X646330Y989010D02*
X697330D01*
X646330Y949010D02*
Y989010D01*
X697330Y949010D02*
Y989010D01*
X743340Y784480D02*
Y824480D01*
X779340Y784480D02*
Y824480D01*
X743340Y784480D02*
X779340D01*
X743340Y824480D02*
X779340D01*
X671390Y929810D02*
Y982810D01*
X743390Y929810D02*
Y982810D01*
X671390D02*
X743390D01*
X671390Y929810D02*
X743390D01*
M02*
