G04*
G04 #@! TF.GenerationSoftware,Altium Limited,Altium Designer,19.1.7 (138)*
G04*
G04 Layer_Color=32896*
%FSLAX44Y44*%
%MOMM*%
G71*
G01*
G75*
%ADD10C,0.2500*%
%ADD12C,0.2000*%
%ADD13C,0.2540*%
D10*
X691640Y808060D02*
G03*
X691640Y808060I-1250J0D01*
G01*
X687830Y987010D02*
G03*
X687830Y987010I-1250J0D01*
G01*
D12*
X810070Y858640D02*
X818070D01*
X810070Y873640D02*
X818070D01*
X817880Y779780D02*
X900430D01*
Y751840D02*
Y779780D01*
X817880Y751840D02*
X900430D01*
X817880D02*
Y779780D01*
X819150Y984250D02*
X901700D01*
X819150D02*
Y1012190D01*
X901700D01*
Y984250D02*
Y1012190D01*
X670640Y775060D02*
Y805060D01*
X680640Y775060D02*
Y805060D01*
X670640Y775060D02*
X680640D01*
X670640Y805060D02*
X680640D01*
X788930Y745540D02*
Y783540D01*
X757930Y745540D02*
Y783540D01*
X780930Y971360D02*
Y979360D01*
X765930Y971360D02*
Y979360D01*
X473130Y862460D02*
Y864620D01*
Y887860D02*
Y890020D01*
X434130Y913260D02*
X473130D01*
X434130Y839220D02*
X473130D01*
X666830Y954010D02*
Y984010D01*
X676830Y954010D02*
Y984010D01*
X666830Y954010D02*
X676830D01*
X666830Y984010D02*
X676830D01*
D13*
X864873Y831845D02*
X869952D01*
X867412D01*
Y819149D01*
X869952Y816610D01*
X872491D01*
X875030Y819149D01*
X849638Y829306D02*
X852177Y831845D01*
X857256D01*
X859795Y829306D01*
Y826767D01*
X857256Y824228D01*
X852177D01*
X849638Y821688D01*
Y819149D01*
X852177Y816610D01*
X857256D01*
X859795Y819149D01*
X844560Y816610D02*
X839482D01*
X842021D01*
Y831845D01*
X844560Y829306D01*
X867413Y946145D02*
X872492D01*
X869952D01*
Y933449D01*
X872492Y930910D01*
X875031D01*
X877570Y933449D01*
X852178Y943606D02*
X854717Y946145D01*
X859796D01*
X862335Y943606D01*
Y941067D01*
X859796Y938528D01*
X854717D01*
X852178Y935988D01*
Y933449D01*
X854717Y930910D01*
X859796D01*
X862335Y933449D01*
X836943Y930910D02*
X847100D01*
X836943Y941067D01*
Y943606D01*
X839482Y946145D01*
X844561D01*
X847100Y943606D01*
X600630Y1036697D02*
Y1028700D01*
X597964Y1031366D01*
X595299Y1028700D01*
Y1036697D01*
X588634Y1028700D02*
Y1036697D01*
X592633Y1032699D01*
X587301D01*
X599360Y1022727D02*
Y1014730D01*
X596694Y1017396D01*
X594029Y1014730D01*
Y1022727D01*
X591363Y1021395D02*
X590030Y1022727D01*
X587364D01*
X586031Y1021395D01*
Y1020062D01*
X587364Y1018729D01*
X588697D01*
X587364D01*
X586031Y1017396D01*
Y1016063D01*
X587364Y1014730D01*
X590030D01*
X591363Y1016063D01*
X594520Y846197D02*
Y838200D01*
X591854Y840866D01*
X589188Y838200D01*
Y846197D01*
X581191Y838200D02*
X586523D01*
X581191Y843532D01*
Y844865D01*
X582524Y846197D01*
X585190D01*
X586523Y844865D01*
X594440Y830957D02*
Y822960D01*
X591774Y825626D01*
X589108Y822960D01*
Y830957D01*
X586442Y822960D02*
X583777D01*
X585109D01*
Y830957D01*
X586442Y829624D01*
X629920Y979547D02*
Y972883D01*
X628587Y971550D01*
X625921D01*
X624588Y972883D01*
Y979547D01*
X621923Y978214D02*
X620590Y979547D01*
X617924D01*
X616591Y978214D01*
Y976882D01*
X617924Y975549D01*
X619257D01*
X617924D01*
X616591Y974216D01*
Y972883D01*
X617924Y971550D01*
X620590D01*
X621923Y972883D01*
X638810Y786507D02*
Y779843D01*
X637477Y778510D01*
X634811D01*
X633478Y779843D01*
Y786507D01*
X625481Y778510D02*
X630813D01*
X625481Y783842D01*
Y785174D01*
X626814Y786507D01*
X629480D01*
X630813Y785174D01*
X581660Y980320D02*
X589657D01*
Y984319D01*
X588325Y985652D01*
X585659D01*
X584326Y984319D01*
Y980320D01*
Y982986D02*
X581660Y985652D01*
Y988317D02*
Y990983D01*
Y989650D01*
X589657D01*
X588325Y988317D01*
X581660Y994982D02*
Y997648D01*
Y996315D01*
X589657D01*
X588325Y994982D01*
X690880Y1047750D02*
Y1039753D01*
X694879D01*
X696212Y1041086D01*
Y1043751D01*
X694879Y1045084D01*
X690880D01*
X693546D02*
X696212Y1047750D01*
X698877D02*
X701543D01*
X700210D01*
Y1039753D01*
X698877Y1041086D01*
X705542D02*
X706875Y1039753D01*
X709541D01*
X710874Y1041086D01*
Y1046417D01*
X709541Y1047750D01*
X706875D01*
X705542Y1046417D01*
Y1041086D01*
X684530Y905510D02*
Y913507D01*
X680531D01*
X679198Y912175D01*
Y909509D01*
X680531Y908176D01*
X684530D01*
X681864D02*
X679198Y905510D01*
X676533Y906843D02*
X675200Y905510D01*
X672534D01*
X671201Y906843D01*
Y912175D01*
X672534Y913507D01*
X675200D01*
X676533Y912175D01*
Y910842D01*
X675200Y909509D01*
X671201D01*
X730250Y904240D02*
Y912237D01*
X726251D01*
X724918Y910904D01*
Y908239D01*
X726251Y906906D01*
X730250D01*
X727584D02*
X724918Y904240D01*
X722253Y910904D02*
X720920Y912237D01*
X718254D01*
X716921Y910904D01*
Y909572D01*
X718254Y908239D01*
X716921Y906906D01*
Y905573D01*
X718254Y904240D01*
X720920D01*
X722253Y905573D01*
Y906906D01*
X720920Y908239D01*
X722253Y909572D01*
Y910904D01*
X720920Y908239D02*
X718254D01*
X783590Y1003300D02*
Y1011297D01*
X779591D01*
X778258Y1009965D01*
Y1007299D01*
X779591Y1005966D01*
X783590D01*
X780924D02*
X778258Y1003300D01*
X775593Y1011297D02*
X770261D01*
Y1009965D01*
X775593Y1004633D01*
Y1003300D01*
X675640Y819150D02*
Y827147D01*
X671641D01*
X670308Y825815D01*
Y823149D01*
X671641Y821816D01*
X675640D01*
X672974D02*
X670308Y819150D01*
X662311Y827147D02*
X664977Y825815D01*
X667643Y823149D01*
Y820483D01*
X666310Y819150D01*
X663644D01*
X662311Y820483D01*
Y821816D01*
X663644Y823149D01*
X667643D01*
X721360Y817880D02*
Y825877D01*
X717361D01*
X716028Y824545D01*
Y821879D01*
X717361Y820546D01*
X721360D01*
X718694D02*
X716028Y817880D01*
X708031Y825877D02*
X713363D01*
Y821879D01*
X710697Y823212D01*
X709364D01*
X708031Y821879D01*
Y819213D01*
X709364Y817880D01*
X712030D01*
X713363Y819213D01*
X675640Y717550D02*
Y725547D01*
X671641D01*
X670308Y724214D01*
Y721549D01*
X671641Y720216D01*
X675640D01*
X672974D02*
X670308Y717550D01*
X663644D02*
Y725547D01*
X667643Y721549D01*
X662311D01*
X715010Y717550D02*
Y725547D01*
X711011D01*
X709678Y724214D01*
Y721549D01*
X711011Y720216D01*
X715010D01*
X712344D02*
X709678Y717550D01*
X707013Y724214D02*
X705680Y725547D01*
X703014D01*
X701681Y724214D01*
Y722882D01*
X703014Y721549D01*
X704347D01*
X703014D01*
X701681Y720216D01*
Y718883D01*
X703014Y717550D01*
X705680D01*
X707013Y718883D01*
X810260Y741680D02*
Y749677D01*
X806261D01*
X804928Y748344D01*
Y745679D01*
X806261Y744346D01*
X810260D01*
X807594D02*
X804928Y741680D01*
X796931D02*
X802263D01*
X796931Y747012D01*
Y748344D01*
X798264Y749677D01*
X800930D01*
X802263Y748344D01*
X853188Y868995D02*
X854521Y870327D01*
X857187D01*
X858520Y868995D01*
Y863663D01*
X857187Y862330D01*
X854521D01*
X853188Y863663D01*
X850523Y862330D02*
X847857D01*
X849190D01*
Y870327D01*
X850523Y868995D01*
X838526Y862330D02*
X843858D01*
X838526Y867662D01*
Y868995D01*
X839859Y870327D01*
X842525D01*
X843858Y868995D01*
X743968Y957895D02*
X745301Y959227D01*
X747967D01*
X749300Y957895D01*
Y952563D01*
X747967Y951230D01*
X745301D01*
X743968Y952563D01*
X741303Y959227D02*
X735971D01*
Y957895D01*
X741303Y952563D01*
Y951230D01*
X680468Y767394D02*
X681801Y768727D01*
X684467D01*
X685800Y767394D01*
Y762063D01*
X684467Y760730D01*
X681801D01*
X680468Y762063D01*
X672471Y768727D02*
X675137Y767394D01*
X677803Y764729D01*
Y762063D01*
X676470Y760730D01*
X673804D01*
X672471Y762063D01*
Y763396D01*
X673804Y764729D01*
X677803D01*
M02*
