G04*
G04 #@! TF.GenerationSoftware,Altium Limited,Altium Designer,19.1.7 (138)*
G04*
G04 Layer_Color=16711935*
%FSLAX44Y44*%
%MOMM*%
G71*
G01*
G75*
%ADD30R,1.6032X1.3032*%
%ADD31R,1.0032X1.1032*%
%ADD32R,1.3032X1.6032*%
%ADD33R,1.9032X1.3032*%
%ADD41R,1.1032X1.0032*%
%ADD42R,1.7032X1.7032*%
%ADD43C,1.7032*%
%ADD44R,1.7032X1.7032*%
%ADD45C,1.4732*%
%ADD46C,1.2032*%
%ADD60R,1.3032X1.9032*%
%ADD61R,1.4032X2.4032*%
%ADD62R,0.8032X0.7032*%
G04:AMPARAMS|DCode=63|XSize=0.6532mm|YSize=1.4032mm|CornerRadius=0.1511mm|HoleSize=0mm|Usage=FLASHONLY|Rotation=90.000|XOffset=0mm|YOffset=0mm|HoleType=Round|Shape=RoundedRectangle|*
%AMROUNDEDRECTD63*
21,1,0.6532,1.1010,0,0,90.0*
21,1,0.3510,1.4032,0,0,90.0*
1,1,0.3022,0.5505,0.1755*
1,1,0.3022,0.5505,-0.1755*
1,1,0.3022,-0.5505,-0.1755*
1,1,0.3022,-0.5505,0.1755*
%
%ADD63ROUNDEDRECTD63*%
%ADD64R,3.5032X1.3032*%
%ADD65R,4.2672X1.7272*%
D30*
X603250Y981830D02*
D03*
Y996830D02*
D03*
D31*
X715660Y763270D02*
D03*
X701660D02*
D03*
D32*
X661910Y840740D02*
D03*
X676910D02*
D03*
X692270Y1026160D02*
D03*
X707270D02*
D03*
X716400Y927100D02*
D03*
X731400D02*
D03*
X722510Y840740D02*
D03*
X707510D02*
D03*
X703700Y739140D02*
D03*
X718700D02*
D03*
X661670D02*
D03*
X676670D02*
D03*
X670680Y927100D02*
D03*
X685680D02*
D03*
D33*
X773430Y961860D02*
D03*
Y988860D02*
D03*
D41*
X721360Y976010D02*
D03*
Y962010D02*
D03*
D42*
X506730Y695960D02*
D03*
Y1066800D02*
D03*
D43*
X532130Y695960D02*
D03*
X557530D02*
D03*
X582930D02*
D03*
X608330D02*
D03*
X633730D02*
D03*
X659130D02*
D03*
X684530D02*
D03*
X709930D02*
D03*
X735330D02*
D03*
X760730D02*
D03*
X786130D02*
D03*
X811530D02*
D03*
X836930D02*
D03*
X862330D02*
D03*
X887730D02*
D03*
X913130D02*
D03*
X938530D02*
D03*
X532130Y1066800D02*
D03*
X557530D02*
D03*
X582930D02*
D03*
X608330D02*
D03*
X633730D02*
D03*
X659130D02*
D03*
X684530D02*
D03*
X709930D02*
D03*
X735330D02*
D03*
X760730D02*
D03*
X786130D02*
D03*
X811530D02*
D03*
X836930D02*
D03*
X862330D02*
D03*
X887730D02*
D03*
X913130D02*
D03*
X938530D02*
D03*
X886460Y924560D02*
D03*
Y899160D02*
D03*
Y873760D02*
D03*
Y848360D02*
D03*
Y822960D02*
D03*
D44*
Y949960D02*
D03*
D45*
X796290Y889000D02*
D03*
X643890Y850900D02*
D03*
X707390Y861060D02*
D03*
X739140Y731520D02*
D03*
X817880Y1038860D02*
D03*
X751840Y999165D02*
D03*
X825500Y971550D02*
D03*
X756920Y1021080D02*
D03*
X770890Y920750D02*
D03*
X656590Y1029970D02*
D03*
X704850Y951230D02*
D03*
X731520Y778510D02*
D03*
X859790Y937260D02*
D03*
X756060Y938530D02*
D03*
X779272Y776986D02*
D03*
D46*
X750000Y900000D02*
D03*
X510000Y960000D02*
D03*
X570000Y780000D02*
D03*
X600000D02*
D03*
X555000Y990000D02*
D03*
X495000Y810000D02*
D03*
X450000Y780000D02*
D03*
X465000Y750000D02*
D03*
X585000Y930000D02*
D03*
X630000Y720000D02*
D03*
X600000Y960000D02*
D03*
X450000Y1020000D02*
D03*
X870000Y720000D02*
D03*
X570000D02*
D03*
X540000D02*
D03*
X555000Y930000D02*
D03*
X510000Y900000D02*
D03*
Y780000D02*
D03*
X840000Y900000D02*
D03*
X510000Y720000D02*
D03*
X615000Y750000D02*
D03*
X540000Y1020000D02*
D03*
X510000D02*
D03*
X540000Y960000D02*
D03*
Y840000D02*
D03*
X570000Y900000D02*
D03*
X480000Y960000D02*
D03*
X495000Y990000D02*
D03*
X465000D02*
D03*
X495000Y930000D02*
D03*
X465000D02*
D03*
Y810000D02*
D03*
Y1050000D02*
D03*
X855000Y750000D02*
D03*
X585000Y810000D02*
D03*
X495000Y750000D02*
D03*
Y1050000D02*
D03*
X480000Y1020000D02*
D03*
X525000Y990000D02*
D03*
X570000Y840000D02*
D03*
X540000Y900000D02*
D03*
X450000Y720000D02*
D03*
X555000Y810000D02*
D03*
Y750000D02*
D03*
X660000Y720000D02*
D03*
X525000Y930000D02*
D03*
X540000Y780000D02*
D03*
X510000Y840000D02*
D03*
X480000Y780000D02*
D03*
X450000Y960000D02*
D03*
X570000D02*
D03*
X885000Y990000D02*
D03*
X480000Y720000D02*
D03*
X585000Y750000D02*
D03*
X525000Y810000D02*
D03*
Y750000D02*
D03*
X810000Y780000D02*
D03*
X600000Y720000D02*
D03*
D60*
X800570Y866140D02*
D03*
X827570D02*
D03*
D61*
X859790Y793750D02*
D03*
X834390Y737870D02*
D03*
X885190D02*
D03*
X859790Y970280D02*
D03*
X885190Y1026160D02*
D03*
X834390D02*
D03*
D62*
X624840Y829310D02*
D03*
X614840D02*
D03*
Y843280D02*
D03*
X624840D02*
D03*
X616030Y1031240D02*
D03*
X626030D02*
D03*
X625951Y1017270D02*
D03*
X615951D02*
D03*
D63*
X660890Y799810D02*
D03*
Y793310D02*
D03*
Y786810D02*
D03*
Y780310D02*
D03*
X690390D02*
D03*
Y786810D02*
D03*
Y793310D02*
D03*
Y799810D02*
D03*
X657080Y978760D02*
D03*
Y972260D02*
D03*
Y965760D02*
D03*
Y959260D02*
D03*
X686580D02*
D03*
Y965760D02*
D03*
Y972260D02*
D03*
Y978760D02*
D03*
D64*
X773430Y736040D02*
D03*
Y793040D02*
D03*
D65*
X453450Y901640D02*
D03*
Y850840D02*
D03*
M02*
