G04*
G04 #@! TF.GenerationSoftware,Altium Limited,Altium Designer,19.1.7 (138)*
G04*
G04 Layer_Color=16711935*
%FSLAX44Y44*%
%MOMM*%
G71*
G01*
G75*
%ADD66C,0.1000*%
D66*
X698890Y972810D02*
G03*
X698890Y972810I-5000J0D01*
G01*
X500010Y857680D02*
Y879680D01*
X485510Y857680D02*
Y879680D01*
X500010D01*
X485510Y857680D02*
X500010D01*
X514490Y871550D02*
X531990D01*
X514490Y881050D02*
X531990D01*
Y871550D02*
Y881050D01*
X514490Y871550D02*
Y881050D01*
X549070Y869050D02*
Y883550D01*
X571070Y869050D02*
Y883550D01*
X549070D02*
X571070D01*
X549070Y869050D02*
X571070D01*
X658410Y833490D02*
X680410D01*
X658410Y847990D02*
X680410D01*
X658410Y833490D02*
Y847990D01*
X680410Y833490D02*
Y847990D01*
X797070Y857140D02*
X831070D01*
X797070Y875140D02*
X831070D01*
X797070Y857140D02*
Y875140D01*
X831070Y857140D02*
Y875140D01*
X706010Y1042360D02*
X724010D01*
X706010Y1008360D02*
X724010D01*
Y1042360D01*
X706010Y1008360D02*
Y1042360D01*
X804530Y932860D02*
X818530D01*
X804530Y954360D02*
X818530D01*
Y932860D02*
Y954360D01*
X804530Y932860D02*
Y954360D01*
X775860Y1005580D02*
X793860D01*
X775860Y1036580D02*
X793860D01*
Y1005580D02*
Y1036580D01*
X775860Y1005580D02*
Y1036580D01*
X834760Y989760D02*
X849260D01*
X834760Y1011760D02*
X849260D01*
X834760Y989760D02*
Y1011760D01*
X849260Y989760D02*
Y1011760D01*
X688770Y1018910D02*
Y1033410D01*
X710770Y1018910D02*
Y1033410D01*
X688770Y1018910D02*
X710770D01*
X688770Y1033410D02*
X710770D01*
X712900Y919850D02*
Y934350D01*
X734900Y919850D02*
Y934350D01*
X712900Y919850D02*
X734900D01*
X712900Y934350D02*
X734900D01*
X625340Y826310D02*
Y832310D01*
X614340Y826310D02*
Y832310D01*
X625340D01*
X614340Y826310D02*
X625340D01*
X726010Y833490D02*
Y847990D01*
X704010Y833490D02*
Y847990D01*
X726010D01*
X704010Y833490D02*
X726010D01*
X717410Y758520D02*
Y768020D01*
X699910Y758520D02*
Y768020D01*
X717410D01*
X699910Y758520D02*
X717410D01*
X666890Y775060D02*
X684390D01*
X666890Y805060D02*
X684390D01*
X666890Y775060D02*
Y805060D01*
X684390Y775060D02*
Y805060D01*
X700200Y731890D02*
Y746390D01*
X722200Y731890D02*
Y746390D01*
X700200Y731890D02*
X722200D01*
X700200Y746390D02*
X722200D01*
X756680Y732290D02*
X790180D01*
X756680Y796790D02*
X790180D01*
Y732290D02*
Y796790D01*
X756680Y732290D02*
Y796790D01*
X764430Y958360D02*
X782430D01*
X764430Y992360D02*
X782430D01*
Y958360D02*
Y992360D01*
X764430Y958360D02*
Y992360D01*
X718100Y876430D02*
Y890930D01*
X740100Y876430D02*
Y890930D01*
X718100D02*
X740100D01*
X718100Y876430D02*
X740100D01*
X433130Y843740D02*
X473130D01*
X433130Y908740D02*
X473130D01*
X420130Y834740D02*
Y917740D01*
X433130D01*
X420130Y834740D02*
X433130D01*
X473130Y843740D02*
Y908740D01*
X433130Y834740D02*
Y917740D01*
X355130Y843740D02*
Y908740D01*
Y843740D02*
X420130D01*
X355130Y908740D02*
X420130D01*
X614340Y840280D02*
Y846280D01*
X625340Y840280D02*
Y846280D01*
X614340Y840280D02*
X625340D01*
X614340Y846280D02*
X625340D01*
X658170Y731890D02*
Y746390D01*
X680170Y731890D02*
Y746390D01*
X658170Y731890D02*
X680170D01*
X658170Y746390D02*
X680170D01*
X596000Y978330D02*
X610500D01*
X596000Y1000330D02*
X610500D01*
Y978330D02*
Y1000330D01*
X596000Y978330D02*
Y1000330D01*
X615530Y1028240D02*
Y1034240D01*
X626530Y1028240D02*
Y1034240D01*
X615530Y1028240D02*
X626530D01*
X615530Y1034240D02*
X626530D01*
X626450Y1014270D02*
Y1020270D01*
X615451Y1014270D02*
Y1020270D01*
X626450D01*
X615451Y1014270D02*
X626450D01*
X663080Y954010D02*
X680580D01*
X663080Y984010D02*
X680580D01*
X663080Y954010D02*
Y984010D01*
X680580Y954010D02*
Y984010D01*
X667180Y919850D02*
Y934350D01*
X689180Y919850D02*
Y934350D01*
X667180Y919850D02*
X689180D01*
X667180Y934350D02*
X689180D01*
X769190Y754750D02*
Y769250D01*
X747190Y754750D02*
Y769250D01*
Y754750D02*
X769190D01*
X747190Y769250D02*
X769190D01*
X745840Y795480D02*
Y813480D01*
X776840Y795480D02*
Y813480D01*
X745840Y795480D02*
X776840D01*
X745840Y813480D02*
X776840D01*
X826660Y820910D02*
X844660D01*
X826660Y786910D02*
X844660D01*
Y820910D01*
X826660Y786910D02*
Y820910D01*
X716610Y977760D02*
X726110D01*
X716610Y960260D02*
X726110D01*
X716610D02*
Y977760D01*
X726110Y960260D02*
Y977760D01*
X684890Y930810D02*
Y981810D01*
X729890Y930810D02*
Y981810D01*
X684890D02*
X729890D01*
X684890Y930810D02*
X729890D01*
X634060Y956170D02*
X643560D01*
X634060Y938670D02*
X643560D01*
Y956170D01*
X634060Y938670D02*
Y956170D01*
X679820Y866570D02*
X694320D01*
X679820Y888570D02*
X694320D01*
X679820Y866570D02*
Y888570D01*
X694320Y866570D02*
Y888570D01*
X642990Y866570D02*
X657490D01*
X642990Y888570D02*
X657490D01*
X642990Y866570D02*
Y888570D01*
X657490Y866570D02*
Y888570D01*
M02*
