G04*
G04 #@! TF.GenerationSoftware,Altium Limited,Altium Designer,19.1.7 (138)*
G04*
G04 Layer_Color=255*
%FSLAX44Y44*%
%MOMM*%
G71*
G01*
G75*
%ADD16R,1.4000X1.1000*%
%ADD17R,0.8000X0.9000*%
%ADD18R,1.1000X1.4000*%
%ADD19R,1.7000X1.1000*%
%ADD27R,0.9000X0.8000*%
%ADD49R,1.5000X1.5000*%
%ADD50C,1.5000*%
%ADD51R,1.5000X1.5000*%
%ADD54R,1.1000X1.7000*%
%ADD55R,1.2000X2.2000*%
%ADD56R,0.6000X0.5000*%
G04:AMPARAMS|DCode=57|XSize=0.45mm|YSize=1.2mm|CornerRadius=0.0495mm|HoleSize=0mm|Usage=FLASHONLY|Rotation=90.000|XOffset=0mm|YOffset=0mm|HoleType=Round|Shape=RoundedRectangle|*
%AMROUNDEDRECTD57*
21,1,0.4500,1.1010,0,0,90.0*
21,1,0.3510,1.2000,0,0,90.0*
1,1,0.0990,0.5505,0.1755*
1,1,0.0990,0.5505,-0.1755*
1,1,0.0990,-0.5505,-0.1755*
1,1,0.0990,-0.5505,0.1755*
%
%ADD57ROUNDEDRECTD57*%
%ADD58R,3.3000X1.1000*%
%ADD59R,4.0640X1.5240*%
D16*
X603250Y981830D02*
D03*
Y996830D02*
D03*
D17*
X715660Y763270D02*
D03*
X701660D02*
D03*
D18*
X661910Y840740D02*
D03*
X676910D02*
D03*
X692270Y1026160D02*
D03*
X707270D02*
D03*
X716400Y927100D02*
D03*
X731400D02*
D03*
X722510Y840740D02*
D03*
X707510D02*
D03*
X703700Y739140D02*
D03*
X718700D02*
D03*
X661670D02*
D03*
X676670D02*
D03*
X670680Y927100D02*
D03*
X685680D02*
D03*
D19*
X773430Y961860D02*
D03*
Y988860D02*
D03*
D27*
X721360Y976010D02*
D03*
Y962010D02*
D03*
D49*
X506730Y695960D02*
D03*
Y1066800D02*
D03*
D50*
X532130Y695960D02*
D03*
X557530D02*
D03*
X582930D02*
D03*
X608330D02*
D03*
X633730D02*
D03*
X659130D02*
D03*
X684530D02*
D03*
X709930D02*
D03*
X735330D02*
D03*
X760730D02*
D03*
X786130D02*
D03*
X811530D02*
D03*
X836930D02*
D03*
X862330D02*
D03*
X887730D02*
D03*
X913130D02*
D03*
X938530D02*
D03*
X532130Y1066800D02*
D03*
X557530D02*
D03*
X582930D02*
D03*
X608330D02*
D03*
X633730D02*
D03*
X659130D02*
D03*
X684530D02*
D03*
X709930D02*
D03*
X735330D02*
D03*
X760730D02*
D03*
X786130D02*
D03*
X811530D02*
D03*
X836930D02*
D03*
X862330D02*
D03*
X887730D02*
D03*
X913130D02*
D03*
X938530D02*
D03*
X886460Y924560D02*
D03*
Y899160D02*
D03*
Y873760D02*
D03*
Y848360D02*
D03*
Y822960D02*
D03*
D51*
Y949960D02*
D03*
D54*
X800570Y866140D02*
D03*
X827570D02*
D03*
D55*
X859790Y793750D02*
D03*
X834390Y737870D02*
D03*
X885190D02*
D03*
X859790Y970280D02*
D03*
X885190Y1026160D02*
D03*
X834390D02*
D03*
D56*
X624840Y829310D02*
D03*
X614840D02*
D03*
Y843280D02*
D03*
X624840D02*
D03*
X616030Y1031240D02*
D03*
X626030D02*
D03*
X625951Y1017270D02*
D03*
X615951D02*
D03*
D57*
X660890Y799810D02*
D03*
Y793310D02*
D03*
Y786810D02*
D03*
Y780310D02*
D03*
X690390D02*
D03*
Y786810D02*
D03*
Y793310D02*
D03*
Y799810D02*
D03*
X657080Y978760D02*
D03*
Y972260D02*
D03*
Y965760D02*
D03*
Y959260D02*
D03*
X686580D02*
D03*
Y965760D02*
D03*
Y972260D02*
D03*
Y978760D02*
D03*
D58*
X773430Y736040D02*
D03*
Y793040D02*
D03*
D59*
X453450Y901640D02*
D03*
Y850840D02*
D03*
M02*
