G04*
G04 #@! TF.GenerationSoftware,Altium Limited,Altium Designer,19.1.7 (138)*
G04*
G04 Layer_Physical_Order=1*
G04 Layer_Color=255*
%FSLAX44Y44*%
%MOMM*%
G71*
G01*
G75*
%ADD13C,0.2540*%
%ADD14R,0.9500X0.9000*%
%ADD15R,0.9500X0.9000*%
%ADD16R,1.4000X1.1000*%
%ADD17R,0.8000X0.9000*%
%ADD18R,1.1000X1.4000*%
%ADD19R,1.7000X1.1000*%
%ADD20R,1.0000X1.1000*%
G04:AMPARAMS|DCode=21|XSize=0.4mm|YSize=0.85mm|CornerRadius=0.05mm|HoleSize=0mm|Usage=FLASHONLY|Rotation=90.000|XOffset=0mm|YOffset=0mm|HoleType=Round|Shape=RoundedRectangle|*
%AMROUNDEDRECTD21*
21,1,0.4000,0.7500,0,0,90.0*
21,1,0.3000,0.8500,0,0,90.0*
1,1,0.1000,0.3750,0.1500*
1,1,0.1000,0.3750,-0.1500*
1,1,0.1000,-0.3750,-0.1500*
1,1,0.1000,-0.3750,0.1500*
%
%ADD21ROUNDEDRECTD21*%
G04:AMPARAMS|DCode=22|XSize=0.35mm|YSize=0.85mm|CornerRadius=0.0438mm|HoleSize=0mm|Usage=FLASHONLY|Rotation=90.000|XOffset=0mm|YOffset=0mm|HoleType=Round|Shape=RoundedRectangle|*
%AMROUNDEDRECTD22*
21,1,0.3500,0.7625,0,0,90.0*
21,1,0.2625,0.8500,0,0,90.0*
1,1,0.0875,0.3813,0.1313*
1,1,0.0875,0.3813,-0.1313*
1,1,0.0875,-0.3813,-0.1313*
1,1,0.0875,-0.3813,0.1313*
%
%ADD22ROUNDEDRECTD22*%
%ADD23R,1.1000X0.6500*%
%ADD24R,4.3000X1.8000*%
%ADD25R,0.6500X1.1000*%
%ADD26O,1.3000X0.3500*%
%ADD27R,0.9000X0.8000*%
%ADD47C,0.3000*%
%ADD48C,0.7000*%
%ADD49R,1.5000X1.5000*%
%ADD50C,1.5000*%
%ADD51R,1.5000X1.5000*%
%ADD52C,1.2700*%
%ADD53C,1.0000*%
G36*
X590465Y1067792D02*
X591779Y1064182D01*
X592098Y1063494D01*
X592724Y1062375D01*
X593032Y1061945D01*
X593335Y1061600D01*
X591875Y1058818D01*
X591406Y1059229D01*
X590893Y1059566D01*
X590335Y1059830D01*
X589733Y1060022D01*
X589086Y1060142D01*
X588394Y1060188D01*
X587658Y1060162D01*
X586878Y1060063D01*
X586053Y1059891D01*
X585183Y1059646D01*
X590127Y1068909D01*
X590465Y1067792D01*
D02*
G37*
G36*
X565040Y1065707D02*
X565182Y1063868D01*
X565315Y1063046D01*
X565488Y1062289D01*
X565703Y1061597D01*
X565958Y1060971D01*
X566254Y1060410D01*
X566591Y1059913D01*
X566969Y1059482D01*
X564847Y1057361D01*
X564417Y1057739D01*
X563920Y1058076D01*
X563359Y1058372D01*
X562733Y1058627D01*
X562041Y1058842D01*
X561284Y1059015D01*
X560462Y1059148D01*
X559575Y1059240D01*
X557605Y1059300D01*
X565030Y1066725D01*
X565040Y1065707D01*
D02*
G37*
G36*
X539640D02*
X539782Y1063868D01*
X539915Y1063046D01*
X540088Y1062289D01*
X540303Y1061597D01*
X540558Y1060971D01*
X540854Y1060410D01*
X541191Y1059913D01*
X541569Y1059482D01*
X539448Y1057361D01*
X539016Y1057739D01*
X538520Y1058076D01*
X537959Y1058372D01*
X537333Y1058627D01*
X536641Y1058842D01*
X535884Y1059015D01*
X535062Y1059148D01*
X534175Y1059240D01*
X532205Y1059300D01*
X539630Y1066725D01*
X539640Y1065707D01*
D02*
G37*
G36*
X514030Y1063340D02*
X513945Y1063064D01*
Y1062746D01*
X514030Y1062385D01*
X514199Y1061982D01*
X514454Y1061537D01*
X514794Y1061049D01*
X515218Y1060518D01*
X516321Y1059331D01*
X514199Y1057209D01*
X513584Y1057803D01*
X512481Y1058736D01*
X511993Y1059076D01*
X511548Y1059331D01*
X511145Y1059500D01*
X510784Y1059585D01*
X510466D01*
X510190Y1059500D01*
X509957Y1059331D01*
X514199Y1063573D01*
X514030Y1063340D01*
D02*
G37*
G36*
X905347Y1073150D02*
X904360Y1071863D01*
X903348Y1069421D01*
X903003Y1066800D01*
X903348Y1064179D01*
X904360Y1061737D01*
X905969Y1059639D01*
X906568Y1059180D01*
X906137Y1057910D01*
X899160D01*
Y1022825D01*
X897987Y1022339D01*
X891253Y1029073D01*
X889916Y1029966D01*
X888340Y1030279D01*
X823387D01*
X822956Y1031549D01*
X824220Y1032520D01*
X825645Y1034377D01*
X826541Y1036539D01*
X826680Y1037590D01*
X809081D01*
X809219Y1036539D01*
X810115Y1034377D01*
X811540Y1032520D01*
X812804Y1031549D01*
X812373Y1030279D01*
X804900D01*
Y1036370D01*
X795193D01*
X785241Y1046323D01*
X783904Y1047216D01*
X782328Y1047529D01*
X742420D01*
X740844Y1047216D01*
X739507Y1046323D01*
X727223Y1034039D01*
X726050Y1034525D01*
Y1037590D01*
X716280D01*
Y1030820D01*
X722345D01*
X722831Y1029647D01*
X713084Y1019900D01*
X703970D01*
Y1003820D01*
X726050D01*
Y1019900D01*
X726050D01*
X725665Y1020830D01*
X727908Y1023072D01*
X729081Y1022586D01*
Y1003111D01*
X729395Y1001535D01*
X730288Y1000198D01*
X742561Y987925D01*
Y984102D01*
X741579Y983297D01*
X740890Y983434D01*
X731390D01*
X729716Y983101D01*
X728297Y982153D01*
X727349Y980734D01*
X727016Y979060D01*
X727349Y977386D01*
X728297Y975967D01*
Y975653D01*
X727349Y974234D01*
X727016Y972560D01*
X727349Y970886D01*
X728297Y969467D01*
Y969153D01*
X727349Y967734D01*
X727016Y966060D01*
X727284Y964715D01*
X726567Y963445D01*
X713180D01*
X711694Y963149D01*
X710433Y962307D01*
X710005Y961878D01*
X708735Y962404D01*
Y984990D01*
X708439Y986476D01*
X707597Y987737D01*
X697305Y998029D01*
Y1025821D01*
X702229Y1030745D01*
X710780D01*
X711155Y1030820D01*
X713740D01*
Y1038860D01*
Y1046900D01*
X703970D01*
Y1038515D01*
X700620D01*
X699133Y1038219D01*
X697873Y1037377D01*
X690673Y1030177D01*
X689831Y1028917D01*
X689535Y1027430D01*
Y996420D01*
X689831Y994933D01*
X690673Y993673D01*
X700965Y983381D01*
Y961058D01*
X700936Y960906D01*
X700858Y960652D01*
X700729Y960346D01*
X700540Y959988D01*
X700288Y959586D01*
X699987Y959170D01*
X699098Y958131D01*
X698667Y957691D01*
X698510Y957570D01*
X697085Y955713D01*
X696189Y953551D01*
X696050Y952500D01*
X709993D01*
X706728Y955765D01*
X700405D01*
X701008Y956380D01*
X702024Y957567D01*
X702437Y958138D01*
X702786Y958695D01*
X703072Y959238D01*
X703294Y959765D01*
X703453Y960279D01*
X703548Y960778D01*
X703580Y961262D01*
X706120D01*
X706152Y960778D01*
X706247Y960279D01*
X706406Y959765D01*
X706628Y959238D01*
X706914Y958695D01*
X707263Y958138D01*
X707548Y957744D01*
X708028Y957821D01*
X708669Y957968D01*
X709255Y958149D01*
X709785Y958365D01*
X710261Y958616D01*
X710681Y958902D01*
X711046Y959221D01*
X712841Y957426D01*
X712522Y957061D01*
X712236Y956641D01*
X711985Y956165D01*
X711769Y955635D01*
X711588Y955049D01*
X711441Y954408D01*
X711329Y953713D01*
X711251Y952961D01*
X711237Y952500D01*
X713828D01*
X713837Y952788D01*
X713897Y953373D01*
X713984Y953913D01*
X714090Y954376D01*
X714210Y954761D01*
X714336Y955070D01*
X714459Y955304D01*
X714547Y955433D01*
X714789Y955676D01*
X726567D01*
X727284Y954406D01*
X727016Y953060D01*
X727237Y951949D01*
X726410Y950679D01*
X725110D01*
X723534Y950366D01*
X722197Y949473D01*
X711564Y938839D01*
X698686D01*
X693299Y944226D01*
Y948958D01*
X692986Y950535D01*
X692093Y951871D01*
X688087Y955877D01*
X687761Y956094D01*
X687399Y957837D01*
X687431Y957886D01*
X687764Y959560D01*
X687431Y961234D01*
X686483Y962653D01*
Y962967D01*
X687431Y964386D01*
X687764Y966060D01*
X687431Y967734D01*
X686483Y969153D01*
Y969467D01*
X687431Y970886D01*
X687764Y972560D01*
X687431Y974234D01*
X686483Y975653D01*
Y975967D01*
X687431Y977386D01*
X687764Y979060D01*
X687431Y980734D01*
X686483Y982153D01*
X685064Y983101D01*
X683390Y983434D01*
X675384D01*
X675190Y983568D01*
X674454Y984186D01*
X595013Y1063627D01*
X594915Y1063765D01*
X594406Y1064673D01*
X594175Y1065171D01*
X592923Y1068611D01*
X592737Y1069226D01*
X592712Y1069421D01*
X591700Y1071863D01*
X590713Y1073150D01*
X591339Y1074420D01*
X599921D01*
X600547Y1073150D01*
X599560Y1071863D01*
X598548Y1069421D01*
X598203Y1066800D01*
X598548Y1064179D01*
X599560Y1061737D01*
X601169Y1059639D01*
X603267Y1058030D01*
X605709Y1057018D01*
X608330Y1056673D01*
X610951Y1057018D01*
X613393Y1058030D01*
X615491Y1059639D01*
X617100Y1061737D01*
X618112Y1064179D01*
X618457Y1066800D01*
X618112Y1069421D01*
X617100Y1071863D01*
X616113Y1073150D01*
X616739Y1074420D01*
X625321D01*
X625947Y1073150D01*
X624960Y1071863D01*
X623948Y1069421D01*
X623603Y1066800D01*
X623948Y1064179D01*
X624960Y1061737D01*
X626569Y1059639D01*
X628667Y1058030D01*
X631109Y1057018D01*
X633730Y1056673D01*
X636351Y1057018D01*
X638793Y1058030D01*
X640891Y1059639D01*
X642500Y1061737D01*
X643512Y1064179D01*
X643857Y1066800D01*
X643512Y1069421D01*
X642500Y1071863D01*
X641513Y1073150D01*
X642139Y1074420D01*
X650721D01*
X651347Y1073150D01*
X650360Y1071863D01*
X649348Y1069421D01*
X649003Y1066800D01*
X649348Y1064179D01*
X650360Y1061737D01*
X651969Y1059639D01*
X654067Y1058030D01*
X656509Y1057018D01*
X659130Y1056673D01*
X661751Y1057018D01*
X664193Y1058030D01*
X666291Y1059639D01*
X667900Y1061737D01*
X668912Y1064179D01*
X669257Y1066800D01*
X668912Y1069421D01*
X667900Y1071863D01*
X666913Y1073150D01*
X667539Y1074420D01*
X676121D01*
X676747Y1073150D01*
X675760Y1071863D01*
X674748Y1069421D01*
X674403Y1066800D01*
X674748Y1064179D01*
X675760Y1061737D01*
X677369Y1059639D01*
X679467Y1058030D01*
X681909Y1057018D01*
X684530Y1056673D01*
X687151Y1057018D01*
X689593Y1058030D01*
X691691Y1059639D01*
X693300Y1061737D01*
X694312Y1064179D01*
X694657Y1066800D01*
X694312Y1069421D01*
X693300Y1071863D01*
X692313Y1073150D01*
X692939Y1074420D01*
X701521D01*
X702147Y1073150D01*
X701160Y1071863D01*
X700148Y1069421D01*
X699803Y1066800D01*
X700148Y1064179D01*
X701160Y1061737D01*
X702769Y1059639D01*
X704867Y1058030D01*
X707309Y1057018D01*
X709930Y1056673D01*
X712551Y1057018D01*
X714993Y1058030D01*
X717091Y1059639D01*
X718700Y1061737D01*
X719712Y1064179D01*
X720057Y1066800D01*
X719712Y1069421D01*
X718700Y1071863D01*
X717713Y1073150D01*
X718339Y1074420D01*
X726921D01*
X727547Y1073150D01*
X726560Y1071863D01*
X725548Y1069421D01*
X725203Y1066800D01*
X725548Y1064179D01*
X726560Y1061737D01*
X728169Y1059639D01*
X730267Y1058030D01*
X732709Y1057018D01*
X735330Y1056673D01*
X737951Y1057018D01*
X740393Y1058030D01*
X742491Y1059639D01*
X744100Y1061737D01*
X745112Y1064179D01*
X745457Y1066800D01*
X745112Y1069421D01*
X744100Y1071863D01*
X743113Y1073150D01*
X743739Y1074420D01*
X752321D01*
X752947Y1073150D01*
X751960Y1071863D01*
X750948Y1069421D01*
X750603Y1066800D01*
X750948Y1064179D01*
X751960Y1061737D01*
X753569Y1059639D01*
X755667Y1058030D01*
X758109Y1057018D01*
X760730Y1056673D01*
X763351Y1057018D01*
X765793Y1058030D01*
X767891Y1059639D01*
X769500Y1061737D01*
X770512Y1064179D01*
X770857Y1066800D01*
X770512Y1069421D01*
X769500Y1071863D01*
X768513Y1073150D01*
X769139Y1074420D01*
X777721D01*
X778347Y1073150D01*
X777360Y1071863D01*
X776348Y1069421D01*
X776003Y1066800D01*
X776348Y1064179D01*
X777360Y1061737D01*
X778969Y1059639D01*
X781067Y1058030D01*
X783509Y1057018D01*
X786130Y1056673D01*
X788751Y1057018D01*
X791193Y1058030D01*
X793291Y1059639D01*
X794900Y1061737D01*
X795912Y1064179D01*
X796257Y1066800D01*
X795912Y1069421D01*
X794900Y1071863D01*
X793913Y1073150D01*
X794539Y1074420D01*
X803121D01*
X803747Y1073150D01*
X802760Y1071863D01*
X801748Y1069421D01*
X801403Y1066800D01*
X801748Y1064179D01*
X802760Y1061737D01*
X804369Y1059639D01*
X806467Y1058030D01*
X808909Y1057018D01*
X811530Y1056673D01*
X814151Y1057018D01*
X816593Y1058030D01*
X818691Y1059639D01*
X820300Y1061737D01*
X821312Y1064179D01*
X821657Y1066800D01*
X821312Y1069421D01*
X820300Y1071863D01*
X819313Y1073150D01*
X819939Y1074420D01*
X828521D01*
X829147Y1073150D01*
X828160Y1071863D01*
X827148Y1069421D01*
X826803Y1066800D01*
X827148Y1064179D01*
X828160Y1061737D01*
X829769Y1059639D01*
X831867Y1058030D01*
X834309Y1057018D01*
X836930Y1056673D01*
X839551Y1057018D01*
X841993Y1058030D01*
X844091Y1059639D01*
X845700Y1061737D01*
X846712Y1064179D01*
X847057Y1066800D01*
X846712Y1069421D01*
X845700Y1071863D01*
X844713Y1073150D01*
X845339Y1074420D01*
X853921D01*
X854547Y1073150D01*
X853560Y1071863D01*
X852548Y1069421D01*
X852203Y1066800D01*
X852548Y1064179D01*
X853560Y1061737D01*
X855169Y1059639D01*
X857267Y1058030D01*
X859709Y1057018D01*
X862330Y1056673D01*
X864951Y1057018D01*
X867393Y1058030D01*
X869491Y1059639D01*
X871100Y1061737D01*
X872112Y1064179D01*
X872457Y1066800D01*
X872112Y1069421D01*
X871100Y1071863D01*
X870113Y1073150D01*
X870739Y1074420D01*
X879321D01*
X879947Y1073150D01*
X878960Y1071863D01*
X877948Y1069421D01*
X877603Y1066800D01*
X877948Y1064179D01*
X878960Y1061737D01*
X880569Y1059639D01*
X882667Y1058030D01*
X885109Y1057018D01*
X887730Y1056673D01*
X890351Y1057018D01*
X892793Y1058030D01*
X894891Y1059639D01*
X896500Y1061737D01*
X897512Y1064179D01*
X897857Y1066800D01*
X897512Y1069421D01*
X896500Y1071863D01*
X895513Y1073150D01*
X896139Y1074420D01*
X904721D01*
X905347Y1073150D01*
D02*
G37*
G36*
X706541Y1033391D02*
X704000Y1033360D01*
Y1035900D01*
X704487Y1035913D01*
X704923Y1035951D01*
X705307Y1036014D01*
X705641Y1036103D01*
X705923Y1036217D01*
X706155Y1036357D01*
X706335Y1036522D01*
X706465Y1036713D01*
X706543Y1036929D01*
X706571Y1037170D01*
X706541Y1033391D01*
D02*
G37*
G36*
X835071Y1008580D02*
X835039Y1008865D01*
X834947Y1009120D01*
X834794Y1009345D01*
X834582Y1009540D01*
X834309Y1009705D01*
X833976Y1009840D01*
X833582Y1009945D01*
X833129Y1010020D01*
X832615Y1010065D01*
X832040Y1010080D01*
Y1013080D01*
X832610Y1013086D01*
X833960Y1013184D01*
X834290Y1013242D01*
X834560Y1013314D01*
X834771Y1013398D01*
X834921Y1013496D01*
X835011Y1013606D01*
X835041Y1013730D01*
X835071Y1008580D01*
D02*
G37*
G36*
X802359Y1014295D02*
X802449Y1014040D01*
X802599Y1013815D01*
X802810Y1013620D01*
X803080Y1013455D01*
X803410Y1013320D01*
X803800Y1013215D01*
X804249Y1013140D01*
X804760Y1013095D01*
X805330Y1013080D01*
Y1010080D01*
X804760Y1010065D01*
X804249Y1010020D01*
X803800Y1009945D01*
X803410Y1009840D01*
X803080Y1009705D01*
X802810Y1009540D01*
X802599Y1009345D01*
X802449Y1009120D01*
X802359Y1008865D01*
X802329Y1008580D01*
Y1014580D01*
X802359Y1014295D01*
D02*
G37*
G36*
X798367Y1023247D02*
X799704Y1022354D01*
X801280Y1022041D01*
X886634D01*
X894025Y1014650D01*
Y960000D01*
X882245D01*
X878173Y964073D01*
X876836Y964966D01*
X875260Y965279D01*
X833329D01*
X832768Y966418D01*
X833265Y967067D01*
X834161Y969229D01*
X834299Y970280D01*
X825500D01*
Y972820D01*
X834299D01*
X834161Y973871D01*
X833265Y976033D01*
X831840Y977890D01*
X831806Y978412D01*
X838614Y985220D01*
X840740D01*
Y991990D01*
X832470D01*
Y990064D01*
X822753Y980347D01*
X822465Y979915D01*
X821017Y979315D01*
X819160Y977890D01*
X817735Y976033D01*
X816839Y973871D01*
X816732Y973060D01*
X815529Y972652D01*
X791439Y996743D01*
Y1005790D01*
X804900D01*
Y1007461D01*
X832470D01*
Y1000220D01*
Y994530D01*
X842010D01*
X851550D01*
Y1000220D01*
Y1016300D01*
X835125D01*
X835025Y1016319D01*
X834931Y1016300D01*
X832470D01*
Y1015699D01*
X804900D01*
Y1017370D01*
X791439D01*
Y1024790D01*
X796825D01*
X798367Y1023247D01*
D02*
G37*
G36*
X757629Y996403D02*
X757485Y995755D01*
X757405Y995137D01*
X757389Y994548D01*
X757437Y993988D01*
X757549Y993457D01*
X757725Y992955D01*
X757965Y992483D01*
X758269Y992039D01*
X758637Y991624D01*
X755775Y990243D01*
X755459Y990529D01*
X755082Y990815D01*
X754645Y991102D01*
X754146Y991390D01*
X752966Y991966D01*
X752284Y992255D01*
X749874Y993127D01*
X757838Y997079D01*
X757629Y996403D01*
D02*
G37*
G36*
X672573Y982384D02*
X673617Y981507D01*
X674091Y981180D01*
X674531Y980927D01*
X674939Y980750D01*
X675314Y980646D01*
X675657Y980617D01*
X675967Y980663D01*
X676244Y980782D01*
X672271Y978389D01*
X672248Y978418D01*
X672183Y978489D01*
X670141Y980553D01*
X672002Y982934D01*
X672573Y982384D01*
D02*
G37*
G36*
X575147Y1073150D02*
X574160Y1071863D01*
X573148Y1069421D01*
X572803Y1066800D01*
X573148Y1064179D01*
X574160Y1061737D01*
X575769Y1059639D01*
X577867Y1058030D01*
X580309Y1057018D01*
X582930Y1056673D01*
X585551Y1057018D01*
X585875Y1057153D01*
X585884Y1057153D01*
X586668Y1057374D01*
X587305Y1057506D01*
X587868Y1057578D01*
X588354Y1057595D01*
X588763Y1057568D01*
X589103Y1057505D01*
X589383Y1057416D01*
X589621Y1057303D01*
X589812Y1057177D01*
X669137Y977852D01*
X668651Y976679D01*
X665980D01*
X664982Y977346D01*
X663406Y977659D01*
X652496D01*
X568620Y1061536D01*
X568477Y1061746D01*
X568308Y1062066D01*
X568143Y1062471D01*
X567991Y1062963D01*
X567858Y1063542D01*
X567756Y1064175D01*
X567628Y1065820D01*
X567621Y1066532D01*
X567657Y1066800D01*
X567312Y1069421D01*
X566300Y1071863D01*
X565313Y1073150D01*
X565939Y1074420D01*
X574521D01*
X575147Y1073150D01*
D02*
G37*
G36*
X549747D02*
X548760Y1071863D01*
X547748Y1069421D01*
X547403Y1066800D01*
X547748Y1064179D01*
X548760Y1061737D01*
X550369Y1059639D01*
X552467Y1058030D01*
X554909Y1057018D01*
X557530Y1056673D01*
X557766Y1056704D01*
X559402Y1056654D01*
X560122Y1056580D01*
X560788Y1056472D01*
X561367Y1056339D01*
X561859Y1056187D01*
X562264Y1056022D01*
X562584Y1055853D01*
X562794Y1055710D01*
X645212Y973293D01*
X644726Y972119D01*
X632636D01*
X543220Y1061536D01*
X543077Y1061746D01*
X542908Y1062066D01*
X542743Y1062471D01*
X542591Y1062963D01*
X542458Y1063542D01*
X542356Y1064175D01*
X542228Y1065820D01*
X542221Y1066532D01*
X542257Y1066800D01*
X541912Y1069421D01*
X540900Y1071863D01*
X539913Y1073150D01*
X540539Y1074420D01*
X549121D01*
X549747Y1073150D01*
D02*
G37*
G36*
X673219Y970940D02*
X673155Y970963D01*
X673035Y970983D01*
X672858Y971001D01*
X671989Y971041D01*
X670040Y971060D01*
Y974060D01*
X673219Y974180D01*
Y970940D01*
D02*
G37*
G36*
X524347Y1073150D02*
X523360Y1071863D01*
X522348Y1069421D01*
X522003Y1066800D01*
X522348Y1064179D01*
X523360Y1061737D01*
X524969Y1059639D01*
X527067Y1058030D01*
X529509Y1057018D01*
X532130Y1056673D01*
X532366Y1056704D01*
X534002Y1056654D01*
X534723Y1056580D01*
X535388Y1056472D01*
X535967Y1056339D01*
X536459Y1056187D01*
X536864Y1056022D01*
X537184Y1055853D01*
X537394Y1055710D01*
X625352Y967753D01*
X624866Y966579D01*
X612776D01*
X517646Y1061710D01*
X517180Y1062211D01*
X516870Y1062599D01*
X516770Y1062742D01*
Y1063476D01*
X516789Y1063573D01*
X516770Y1063670D01*
Y1074420D01*
X523721D01*
X524347Y1073150D01*
D02*
G37*
G36*
X741625Y967657D02*
X741746Y967637D01*
X741923Y967619D01*
X742792Y967579D01*
X744740Y967560D01*
Y964560D01*
X741561Y964440D01*
Y967680D01*
X741625Y967657D01*
D02*
G37*
G36*
X673219Y964440D02*
X673155Y964463D01*
X673035Y964483D01*
X672858Y964501D01*
X671989Y964541D01*
X670040Y964560D01*
Y967560D01*
X673219Y967680D01*
Y964440D01*
D02*
G37*
G36*
X730719Y957941D02*
X730594Y958007D01*
X730429Y958066D01*
X730224Y958119D01*
X729978Y958164D01*
X729365Y958234D01*
X728591Y958276D01*
X727656Y958290D01*
Y960830D01*
X728144Y960834D01*
X729978Y960956D01*
X730224Y961002D01*
X730429Y961054D01*
X730594Y961114D01*
X730719Y961180D01*
Y957941D01*
D02*
G37*
G36*
X673219D02*
X673155Y957963D01*
X673035Y957984D01*
X672858Y958001D01*
X671989Y958041D01*
X670040Y958060D01*
Y961060D01*
X673219Y961180D01*
Y957941D01*
D02*
G37*
G36*
X772741Y1004558D02*
Y997095D01*
X773055Y995518D01*
X773947Y994182D01*
X804451Y963679D01*
Y954752D01*
X804092Y954458D01*
X799507D01*
X760280Y993685D01*
X760197Y993806D01*
X760112Y993975D01*
X760048Y994156D01*
X760004Y994367D01*
X759982Y994623D01*
X759990Y994935D01*
X760038Y995306D01*
X760135Y995739D01*
X760313Y996317D01*
X760322Y996413D01*
X760501Y996844D01*
X760807Y999165D01*
X760501Y1001486D01*
X759605Y1003648D01*
X759108Y1004297D01*
X759669Y1005436D01*
X770835D01*
X771471Y1005562D01*
X772741Y1004558D01*
D02*
G37*
G36*
X673219Y951440D02*
X673128Y951481D01*
X672983Y951518D01*
X672785Y951550D01*
X672228Y951602D01*
X670990Y951647D01*
X669897Y951656D01*
X670183Y954656D01*
X673219Y954679D01*
Y951440D01*
D02*
G37*
G36*
X643281Y955871D02*
X643373Y955615D01*
X643525Y955390D01*
X643738Y955195D01*
X644011Y955031D01*
X644344Y954895D01*
X644737Y954790D01*
X645191Y954715D01*
X645705Y954670D01*
X646280Y954656D01*
Y951656D01*
X645710Y951643D01*
X644750Y951547D01*
X644360Y951463D01*
X644029Y951354D01*
X643760Y951222D01*
X643549Y951065D01*
X643400Y950884D01*
X643309Y950680D01*
X643279Y950451D01*
X643249Y956155D01*
X643281Y955871D01*
D02*
G37*
G36*
X826948Y951901D02*
X827063Y951840D01*
X827235Y951786D01*
X827465Y951739D01*
X827751Y951700D01*
X828495Y951642D01*
X830038Y951610D01*
Y948610D01*
X829467Y948606D01*
X827465Y948481D01*
X827235Y948434D01*
X827063Y948380D01*
X826948Y948319D01*
X826889Y948251D01*
Y951969D01*
X826948Y951901D01*
D02*
G37*
G36*
X752929Y989102D02*
X753287Y988895D01*
X753587Y988699D01*
X753705Y988609D01*
X793315Y948999D01*
X793246Y948464D01*
X792643Y947729D01*
X782439D01*
X761195Y968973D01*
X759859Y969866D01*
X758283Y970179D01*
X747683D01*
X747197Y971352D01*
X749593Y973749D01*
X750486Y975085D01*
X750799Y976661D01*
Y988688D01*
X750822Y988736D01*
X751566Y989344D01*
X752069Y989522D01*
X752929Y989102D01*
D02*
G37*
G36*
X741652Y948139D02*
X741797Y948102D01*
X741996Y948070D01*
X742553Y948018D01*
X743791Y947973D01*
X744883Y947964D01*
X744597Y944964D01*
X741561Y944940D01*
Y948180D01*
X741652Y948139D01*
D02*
G37*
G36*
X730719Y944940D02*
X730655Y944963D01*
X730535Y944983D01*
X730358Y945001D01*
X729489Y945041D01*
X727540Y945060D01*
Y948060D01*
X730719Y948180D01*
Y944940D01*
D02*
G37*
G36*
X818284Y958247D02*
X819620Y957354D01*
X821196Y957041D01*
X873554D01*
X876420Y954175D01*
Y941379D01*
X869473D01*
X869299Y941409D01*
X869021Y941486D01*
X868708Y941607D01*
X868360Y941777D01*
X867978Y942003D01*
X867596Y942267D01*
X866635Y943069D01*
X866249Y943446D01*
X866130Y943600D01*
X864273Y945025D01*
X862111Y945921D01*
X859790Y946227D01*
X857469Y945921D01*
X855307Y945025D01*
X853450Y943600D01*
X852025Y941743D01*
X851129Y939581D01*
X851022Y938770D01*
X849819Y938362D01*
X835159Y953023D01*
X833823Y953915D01*
X832246Y954229D01*
X828663D01*
X828622Y954230D01*
X828071Y954273D01*
X828066Y954277D01*
X827971Y954303D01*
X827716Y954473D01*
X826530Y954709D01*
X819030D01*
X817844Y954473D01*
X816838Y953802D01*
X816167Y952796D01*
X816146Y952695D01*
X814768Y952277D01*
X812689Y954356D01*
Y962183D01*
X813862Y962669D01*
X818284Y958247D01*
D02*
G37*
G36*
X750449Y946304D02*
X750880Y945998D01*
X751357Y945729D01*
X751881Y945496D01*
X752451Y945301D01*
X753068Y945143D01*
X753731Y945022D01*
X754440Y944937D01*
X755195Y944890D01*
X755996Y944880D01*
X749710Y938594D01*
X749700Y939395D01*
X749568Y940859D01*
X749447Y941522D01*
X749289Y942139D01*
X749093Y942709D01*
X748861Y943233D01*
X748592Y943710D01*
X748286Y944141D01*
X747942Y944527D01*
X750063Y946648D01*
X750449Y946304D01*
D02*
G37*
G36*
X899644Y939800D02*
X898144D01*
X894543Y938321D01*
X894942Y938750D01*
X895300Y939197D01*
X895615Y939662D01*
X895888Y940145D01*
X896119Y940646D01*
X896308Y941165D01*
X896455Y941702D01*
X896560Y942257D01*
X896623Y942830D01*
X896644Y943421D01*
X899644Y939800D01*
D02*
G37*
G36*
X822765Y935132D02*
X822515Y935280D01*
X822227Y935348D01*
X821900Y935334D01*
X821534Y935240D01*
X821129Y935065D01*
X820686Y934810D01*
X820203Y934474D01*
X819682Y934057D01*
X818522Y932981D01*
X816401Y935102D01*
X816804Y935519D01*
X817483Y936309D01*
X817758Y936682D01*
X817992Y937040D01*
X818183Y937383D01*
X818331Y937712D01*
X818437Y938026D01*
X818501Y938325D01*
X818522Y938610D01*
X822765Y935132D01*
D02*
G37*
G36*
X864899Y941145D02*
X866027Y940203D01*
X866582Y939820D01*
X867130Y939496D01*
X867671Y939231D01*
X868205Y939025D01*
X868734Y938878D01*
X869255Y938789D01*
X869770Y938760D01*
Y935760D01*
X869255Y935731D01*
X868734Y935642D01*
X868205Y935495D01*
X867671Y935289D01*
X867130Y935024D01*
X866582Y934700D01*
X866027Y934317D01*
X865466Y933875D01*
X864899Y933375D01*
X864325Y932815D01*
Y941705D01*
X864899Y941145D01*
D02*
G37*
G36*
X738855Y931807D02*
X738600Y931716D01*
X738375Y931565D01*
X738180Y931353D01*
X738015Y931080D01*
X737880Y930747D01*
X737775Y930353D01*
X737700Y929898D01*
X737655Y929383D01*
X737640Y928807D01*
X734640D01*
X734625Y929383D01*
X734580Y929898D01*
X734505Y930353D01*
X734400Y930747D01*
X734265Y931080D01*
X734100Y931353D01*
X733905Y931565D01*
X733680Y931716D01*
X733425Y931807D01*
X733140Y931837D01*
X739140D01*
X738855Y931807D01*
D02*
G37*
G36*
X777820Y940697D02*
X779156Y939804D01*
X780733Y939491D01*
X792643D01*
X793449Y938509D01*
X793431Y938423D01*
Y938006D01*
X780077Y924651D01*
X778847Y924771D01*
X778655Y925233D01*
X777230Y927090D01*
X775373Y928515D01*
X774775Y928763D01*
Y942083D01*
X775948Y942569D01*
X777820Y940697D01*
D02*
G37*
G36*
X879583Y931938D02*
X879299Y931721D01*
X877690Y929623D01*
X876678Y927181D01*
X876501Y925830D01*
X886460D01*
Y923290D01*
X876501D01*
X876678Y921939D01*
X877690Y919497D01*
X878525Y918409D01*
X877898Y917139D01*
X871043D01*
X860892Y927290D01*
X861300Y928492D01*
X862111Y928599D01*
X864273Y929495D01*
X866130Y930920D01*
X866249Y931074D01*
X866660Y931475D01*
X867125Y931885D01*
X867566Y932232D01*
X867978Y932517D01*
X868360Y932743D01*
X868708Y932913D01*
X869021Y933034D01*
X869299Y933111D01*
X869473Y933141D01*
X879175D01*
X879583Y931938D01*
D02*
G37*
G36*
X737655Y893074D02*
X737700Y892559D01*
X737775Y892104D01*
X737880Y891710D01*
X738015Y891377D01*
X738180Y891104D01*
X738375Y890892D01*
X738600Y890741D01*
X738855Y890650D01*
X739140Y890619D01*
X733140D01*
X733425Y890650D01*
X733680Y890741D01*
X733905Y890892D01*
X734100Y891104D01*
X734265Y891377D01*
X734400Y891710D01*
X734505Y892104D01*
X734580Y892559D01*
X734625Y893074D01*
X734640Y893650D01*
X737640D01*
X737655Y893074D01*
D02*
G37*
G36*
X619270Y889947D02*
X619480Y889658D01*
X619830Y889403D01*
X620320Y889182D01*
X620950Y888995D01*
X621720Y888842D01*
X622630Y888723D01*
X624870Y888587D01*
X626200Y888570D01*
Y881570D01*
X619200Y881331D01*
Y890270D01*
X619270Y889947D01*
D02*
G37*
G36*
X547100Y869331D02*
X547030Y869990D01*
X546820Y870580D01*
X546470Y871100D01*
X545980Y871551D01*
X545350Y871933D01*
X544580Y872245D01*
X543670Y872488D01*
X542620Y872661D01*
X541430Y872765D01*
X540342Y872794D01*
X539880Y872790D01*
X535330Y872451D01*
X534840Y872325D01*
X534490Y872179D01*
X534280Y872015D01*
X534210Y871831D01*
Y880770D01*
X534280Y880585D01*
X534490Y880421D01*
X534840Y880275D01*
X535330Y880149D01*
X535960Y880042D01*
X536730Y879955D01*
X538690Y879839D01*
X540512Y879811D01*
X541430Y879835D01*
X542620Y879939D01*
X543670Y880112D01*
X544580Y880355D01*
X545350Y880667D01*
X545980Y881049D01*
X546470Y881500D01*
X546820Y882020D01*
X547030Y882610D01*
X547100Y883270D01*
Y869331D01*
D02*
G37*
G36*
X694109Y889901D02*
X694320Y889330D01*
X694669Y888826D01*
X695160Y888390D01*
X695789Y888020D01*
X696560Y887718D01*
X697469Y887483D01*
X698520Y887315D01*
X699709Y887214D01*
X701040Y887180D01*
Y880180D01*
X699709Y880174D01*
X694320Y879809D01*
X694109Y879711D01*
X694040Y879601D01*
Y890540D01*
X694109Y889901D01*
D02*
G37*
G36*
X680100Y879601D02*
X680031Y879975D01*
X679820Y880310D01*
X679471Y880605D01*
X678980Y880861D01*
X678351Y881078D01*
X677580Y881255D01*
X676671Y881393D01*
X675620Y881491D01*
X673101Y881570D01*
Y888570D01*
X674430Y888590D01*
X676671Y888747D01*
X677580Y888885D01*
X678351Y889062D01*
X678980Y889279D01*
X679471Y889535D01*
X679820Y889831D01*
X680031Y890165D01*
X680100Y890540D01*
Y879601D01*
D02*
G37*
G36*
X657280Y890165D02*
X657489Y889831D01*
X657840Y889535D01*
X658329Y889279D01*
X658960Y889062D01*
X659730Y888885D01*
X660639Y888747D01*
X661690Y888649D01*
X664210Y888570D01*
Y881570D01*
X662879Y881550D01*
X660639Y881393D01*
X659730Y881255D01*
X658960Y881078D01*
X658329Y880861D01*
X657840Y880605D01*
X657489Y880310D01*
X657280Y879975D01*
X657209Y879601D01*
Y890540D01*
X657280Y890165D01*
D02*
G37*
G36*
X643270Y879601D02*
X643201Y879975D01*
X642990Y880310D01*
X642641Y880605D01*
X642150Y880861D01*
X641520Y881078D01*
X640751Y881255D01*
X639841Y881393D01*
X638791Y881491D01*
X636270Y881570D01*
Y888570D01*
X637601Y888590D01*
X639841Y888747D01*
X640751Y888885D01*
X641520Y889062D01*
X642150Y889279D01*
X642641Y889535D01*
X642990Y889831D01*
X643201Y890165D01*
X643270Y890540D01*
Y879601D01*
D02*
G37*
G36*
X716130Y876711D02*
X716060Y877370D01*
X715850Y877960D01*
X715500Y878480D01*
X715010Y878931D01*
X714380Y879313D01*
X713610Y879625D01*
X712700Y879868D01*
X711650Y880041D01*
X710460Y880145D01*
X709130Y880180D01*
Y887180D01*
X710460Y887215D01*
X711650Y887319D01*
X712700Y887493D01*
X713610Y887735D01*
X714380Y888048D01*
X715010Y888429D01*
X715500Y888880D01*
X715850Y889401D01*
X716060Y889990D01*
X716130Y890650D01*
Y876711D01*
D02*
G37*
G36*
X573110Y882610D02*
X573320Y882020D01*
X573670Y881500D01*
X574160Y881049D01*
X574790Y880667D01*
X575560Y880355D01*
X576470Y880112D01*
X577520Y879939D01*
X578710Y879835D01*
X579240Y879821D01*
X583641Y880149D01*
X584131Y880275D01*
X584481Y880421D01*
X584691Y880585D01*
X584761Y880770D01*
Y871831D01*
X584691Y872015D01*
X584481Y872179D01*
X584131Y872325D01*
X583641Y872451D01*
X583011Y872558D01*
X582241Y872645D01*
X580281Y872761D01*
X579194Y872778D01*
X578710Y872765D01*
X577520Y872661D01*
X576470Y872488D01*
X575560Y872245D01*
X574790Y871933D01*
X574160Y871551D01*
X573670Y871100D01*
X573320Y870580D01*
X573110Y869990D01*
X573040Y869331D01*
Y883270D01*
X573110Y882610D01*
D02*
G37*
G36*
X499799Y881298D02*
X500009Y880984D01*
X500359Y880706D01*
X500849Y880466D01*
X501479Y880262D01*
X502249Y880096D01*
X503159Y879967D01*
X504210Y879874D01*
X506440Y879809D01*
X506601Y879810D01*
X511151Y880149D01*
X511641Y880275D01*
X511991Y880421D01*
X512201Y880585D01*
X512271Y880770D01*
Y871831D01*
X512201Y872015D01*
X511991Y872179D01*
X511641Y872325D01*
X511151Y872451D01*
X510521Y872558D01*
X509751Y872645D01*
X507791Y872761D01*
X506008Y872789D01*
X505400Y872779D01*
X503159Y872612D01*
X502249Y872466D01*
X501479Y872278D01*
X500849Y872048D01*
X500359Y871776D01*
X500009Y871463D01*
X499799Y871108D01*
X499729Y870711D01*
Y881650D01*
X499799Y881298D01*
D02*
G37*
G36*
X474959Y882575D02*
X475170Y881980D01*
X475522Y881455D01*
X476014Y881000D01*
X476647Y880615D01*
X477420Y880300D01*
X478334Y880055D01*
X479389Y879880D01*
X480483Y879784D01*
X482360Y879912D01*
X483270Y880046D01*
X484040Y880217D01*
X484670Y880427D01*
X485160Y880676D01*
X485510Y880962D01*
X485720Y881287D01*
X485790Y881650D01*
Y870711D01*
X485720Y871096D01*
X485510Y871441D01*
X485160Y871746D01*
X484670Y872010D01*
X484040Y872233D01*
X483270Y872415D01*
X482360Y872557D01*
X481311Y872659D01*
X480394Y872688D01*
X479389Y872600D01*
X478334Y872425D01*
X477420Y872180D01*
X476647Y871865D01*
X476014Y871480D01*
X475522Y871025D01*
X475170Y870500D01*
X474959Y869905D01*
X474889Y869240D01*
Y883240D01*
X474959Y882575D01*
D02*
G37*
G36*
X496690Y1058345D02*
X496270Y1057977D01*
Y1051270D01*
X502438D01*
X502346Y1051968D01*
X501586Y1053802D01*
X500377Y1055377D01*
X500230Y1055490D01*
X500662Y1056760D01*
X509860D01*
X509957Y1056741D01*
X510054Y1056760D01*
X510788D01*
X510902Y1056681D01*
X511697Y1056008D01*
X538956Y1028748D01*
X538501Y1027407D01*
X538032Y1027346D01*
X536197Y1026586D01*
X534622Y1025377D01*
X533414Y1023802D01*
X532654Y1021968D01*
X532562Y1021270D01*
X540000D01*
Y1020000D01*
X541270D01*
Y1012562D01*
X541968Y1012654D01*
X543802Y1013413D01*
X545377Y1014622D01*
X546586Y1016197D01*
X547346Y1018031D01*
X547408Y1018501D01*
X548749Y1018956D01*
X598956Y968748D01*
X598501Y967408D01*
X598032Y967346D01*
X596197Y966586D01*
X594622Y965377D01*
X593414Y963802D01*
X592654Y961968D01*
X592562Y961270D01*
X600000D01*
Y960000D01*
X601270D01*
Y952562D01*
X601968Y952654D01*
X603802Y953413D01*
X605377Y954622D01*
X606586Y956197D01*
X607346Y958031D01*
X607414Y958548D01*
X608772Y959137D01*
X609493Y958655D01*
X611070Y958341D01*
X631770D01*
Y948230D01*
X631770Y947880D01*
Y946960D01*
X631770Y946610D01*
Y941690D01*
X645850D01*
Y946610D01*
X645850Y946960D01*
Y947880D01*
X646786Y949036D01*
X668974D01*
X669717Y947830D01*
X678640D01*
Y945290D01*
X669769D01*
X669849Y944886D01*
X670797Y943467D01*
Y943153D01*
X669849Y941734D01*
X669516Y940060D01*
X669849Y938386D01*
X670797Y936967D01*
Y936653D01*
X669849Y935234D01*
X669516Y933560D01*
X669849Y931886D01*
X670797Y930467D01*
X672216Y929519D01*
X673890Y929186D01*
X683390D01*
X685064Y929519D01*
X686483Y930467D01*
X687431Y931886D01*
X687764Y933560D01*
X687431Y935234D01*
X686866Y936081D01*
X687291Y937043D01*
X688625Y937250D01*
X694067Y931807D01*
X695404Y930914D01*
X696980Y930601D01*
X713270D01*
X714846Y930914D01*
X716183Y931807D01*
X726041Y941665D01*
X727211Y941040D01*
X727016Y940060D01*
X727349Y938386D01*
X728297Y936967D01*
Y936653D01*
X727349Y935234D01*
X727016Y933560D01*
X727349Y931886D01*
X728297Y930467D01*
X729716Y929519D01*
X731390Y929186D01*
X732021D01*
Y893220D01*
X716419D01*
X716404Y893225D01*
X716351Y893220D01*
X716227D01*
X716130Y893240D01*
X716033Y893220D01*
X713560D01*
Y890939D01*
X713555Y890923D01*
X713518Y890576D01*
X713447Y890510D01*
X713215Y890370D01*
X712787Y890196D01*
X712154Y890027D01*
X711326Y889890D01*
X710735Y889839D01*
X699406D01*
X698834Y889887D01*
X697999Y890021D01*
X697360Y890186D01*
X696925Y890357D01*
X696691Y890494D01*
X696645Y890534D01*
X696614Y890822D01*
X696610Y890834D01*
Y893110D01*
X694136D01*
X694040Y893129D01*
X693943Y893110D01*
X693801D01*
X693757Y893114D01*
X693745Y893110D01*
X680197D01*
X680100Y893129D01*
X680004Y893110D01*
X677530D01*
Y891531D01*
X677095Y891431D01*
X676385Y891323D01*
X675034Y891228D01*
X662057D01*
X661851Y891235D01*
X660955Y891319D01*
X660215Y891431D01*
X659780Y891531D01*
Y893110D01*
X657306D01*
X657209Y893129D01*
X657113Y893110D01*
X643367D01*
X643270Y893129D01*
X643174Y893110D01*
X640700D01*
Y891531D01*
X640265Y891431D01*
X639555Y891323D01*
X638204Y891228D01*
X624099D01*
X622877Y891303D01*
X622140Y891399D01*
X621770Y891472D01*
Y892840D01*
X619297D01*
X619200Y892859D01*
X619103Y892840D01*
X607190D01*
Y878760D01*
X619103D01*
X619200Y878741D01*
X619244Y878750D01*
X619288Y878742D01*
X619807Y878760D01*
X621770D01*
Y878827D01*
X624240Y878912D01*
X638424D01*
X638629Y878905D01*
X639525Y878821D01*
X640265Y878709D01*
X640700Y878609D01*
Y871340D01*
X650240D01*
X659780D01*
Y878609D01*
X660215Y878709D01*
X660925Y878817D01*
X662276Y878912D01*
X675254D01*
X675459Y878905D01*
X676355Y878821D01*
X677095Y878709D01*
X677530Y878609D01*
Y871340D01*
X687070D01*
X696610D01*
Y877369D01*
X698871Y877522D01*
X710735D01*
X711326Y877470D01*
X712154Y877333D01*
X712787Y877165D01*
X713215Y876991D01*
X713447Y876850D01*
X713518Y876785D01*
X713555Y876437D01*
X713560Y876422D01*
Y874140D01*
X716033D01*
X716130Y874121D01*
X716227Y874140D01*
X716351D01*
X716404Y874135D01*
X716419Y874140D01*
X744640D01*
Y892012D01*
X744640Y893008D01*
X745659Y893827D01*
X746197Y893414D01*
X748031Y892654D01*
X748730Y892562D01*
Y898730D01*
X742562D01*
X742654Y898031D01*
X743414Y896197D01*
X744622Y894623D01*
X744622Y894622D01*
X744891Y894272D01*
X744335Y893220D01*
X743458Y893220D01*
X740259D01*
Y929186D01*
X740890D01*
X742564Y929519D01*
X743983Y930467D01*
X744931Y931886D01*
X745264Y933560D01*
X744931Y935234D01*
X743983Y936653D01*
Y936967D01*
X744931Y938386D01*
X745264Y940060D01*
X745199Y940391D01*
X745557Y941057D01*
X746152Y941556D01*
X746760Y941407D01*
X746811Y941378D01*
X746916Y940966D01*
X747000Y940510D01*
X747112Y939262D01*
X747119Y938723D01*
X747093Y938530D01*
X747399Y936209D01*
X748295Y934047D01*
X749719Y932190D01*
X751577Y930765D01*
X753739Y929869D01*
X756060Y929563D01*
X758381Y929869D01*
X760543Y930765D01*
X762400Y932190D01*
X763825Y934047D01*
X764721Y936209D01*
X765027Y938530D01*
X764721Y940851D01*
X763825Y943013D01*
X762400Y944870D01*
X760543Y946295D01*
X758381Y947191D01*
X756060Y947497D01*
X755867Y947471D01*
X755292Y947479D01*
X754674Y947517D01*
X754117Y947584D01*
X753624Y947674D01*
X753194Y947784D01*
X752828Y947910D01*
X752521Y948046D01*
X752269Y948188D01*
X752125Y948290D01*
X751038Y949377D01*
X749702Y950270D01*
X748126Y950583D01*
X745806D01*
X745024Y951853D01*
X745264Y953060D01*
X744997Y954406D01*
X745713Y955676D01*
X754601D01*
X767005Y943271D01*
Y928763D01*
X766407Y928515D01*
X764550Y927090D01*
X763125Y925233D01*
X762229Y923071D01*
X762091Y922020D01*
X770890D01*
Y920750D01*
X772160D01*
Y911951D01*
X773211Y912089D01*
X775373Y912985D01*
X777230Y914410D01*
X778655Y916267D01*
X778903Y916865D01*
X781670D01*
X783156Y917161D01*
X784417Y918003D01*
X799010Y932596D01*
Y937110D01*
X800280D01*
Y938380D01*
X807128D01*
Y938423D01*
X806897Y939584D01*
X806379Y940360D01*
X806897Y941136D01*
X807128Y942298D01*
Y944922D01*
X806941Y945861D01*
X807050Y946335D01*
X807134Y946473D01*
X808719Y946675D01*
X815157Y940238D01*
X816125Y939590D01*
X816102Y939470D01*
X816043Y939361D01*
X816015Y939077D01*
X815939Y938802D01*
X815932Y938702D01*
X815918Y938661D01*
X815867Y938547D01*
X815772Y938377D01*
X815630Y938159D01*
X815457Y937925D01*
X815073Y937478D01*
X748927Y871333D01*
X748034Y869996D01*
X747721Y868420D01*
Y824520D01*
X746050D01*
Y811059D01*
X697930D01*
Y816100D01*
X682850D01*
Y800020D01*
X697930D01*
Y802821D01*
X767520D01*
X769097Y803134D01*
X770433Y804027D01*
X770941Y804535D01*
X770945Y804538D01*
X771654Y804064D01*
X773230Y803751D01*
X845970D01*
X847546Y804064D01*
X848883Y804957D01*
X881196Y837270D01*
X881406Y837413D01*
X881726Y837582D01*
X882131Y837747D01*
X882623Y837899D01*
X883202Y838032D01*
X883835Y838134D01*
X885480Y838262D01*
X886192Y838269D01*
X886460Y838233D01*
X889081Y838578D01*
X891523Y839590D01*
X893621Y841199D01*
X895230Y843297D01*
X896242Y845739D01*
X896587Y848360D01*
X896242Y850981D01*
X895230Y853423D01*
X893621Y855521D01*
X891523Y857130D01*
X889081Y858142D01*
X886460Y858487D01*
X886224Y858456D01*
X884588Y858506D01*
X883867Y858580D01*
X883202Y858688D01*
X882623Y858821D01*
X882131Y858973D01*
X881726Y859138D01*
X881405Y859307D01*
X881196Y859450D01*
X860406Y880239D01*
Y914329D01*
X861676Y914855D01*
X866424Y910107D01*
X867760Y909214D01*
X869336Y908901D01*
X880576D01*
X881007Y907631D01*
X879299Y906321D01*
X877690Y904223D01*
X876678Y901781D01*
X876333Y899160D01*
X876678Y896539D01*
X877690Y894097D01*
X879299Y891999D01*
X881397Y890390D01*
X883839Y889378D01*
X886460Y889033D01*
X889081Y889378D01*
X891523Y890390D01*
X893621Y891999D01*
X895230Y894097D01*
X896242Y896539D01*
X896587Y899160D01*
X896242Y901781D01*
X895230Y904223D01*
X893621Y906321D01*
X891800Y907717D01*
X891896Y908730D01*
X892050Y909062D01*
X892816Y909214D01*
X894153Y910107D01*
X897987Y913941D01*
X899160Y913455D01*
Y712545D01*
X874756D01*
X874325Y713815D01*
X875377Y714622D01*
X876586Y716197D01*
X877346Y718031D01*
X877438Y718730D01*
X862562D01*
X862654Y718031D01*
X863414Y716197D01*
X864622Y714622D01*
X865675Y713815D01*
X865243Y712545D01*
X763609D01*
X748837Y727317D01*
X748749Y727446D01*
X748626Y727680D01*
X748500Y727989D01*
X748380Y728374D01*
X748274Y728837D01*
X748193Y729344D01*
X748087Y730708D01*
X748081Y731324D01*
X748107Y731520D01*
X747801Y733841D01*
X746905Y736003D01*
X745480Y737860D01*
X743623Y739285D01*
X741461Y740181D01*
X739140Y740487D01*
X736819Y740181D01*
X734657Y739285D01*
X732800Y737860D01*
X731375Y736003D01*
X731127Y735405D01*
X697930D01*
Y743710D01*
X682850D01*
Y727630D01*
X697930D01*
Y727635D01*
X731127D01*
X731375Y727037D01*
X732800Y725180D01*
X734657Y723755D01*
X736819Y722859D01*
X739140Y722553D01*
X739312Y722576D01*
X740698Y722533D01*
X741283Y722473D01*
X741823Y722386D01*
X742286Y722280D01*
X742671Y722160D01*
X742980Y722034D01*
X743214Y721911D01*
X743343Y721823D01*
X758140Y707027D01*
X758129Y706581D01*
X757769Y705601D01*
X755667Y704730D01*
X753569Y703121D01*
X751960Y701023D01*
X750948Y698581D01*
X750603Y695960D01*
X750948Y693339D01*
X751960Y690897D01*
X753569Y688799D01*
X755667Y687190D01*
X755957Y687070D01*
X755704Y685800D01*
X740356D01*
X740103Y687070D01*
X740393Y687190D01*
X742491Y688799D01*
X744100Y690897D01*
X745112Y693339D01*
X745457Y695960D01*
X745112Y698581D01*
X744100Y701023D01*
X742491Y703121D01*
X740393Y704730D01*
X737951Y705742D01*
X735330Y706087D01*
X732709Y705742D01*
X730267Y704730D01*
X728169Y703121D01*
X726560Y701023D01*
X725548Y698581D01*
X725203Y695960D01*
X725548Y693339D01*
X726560Y690897D01*
X728169Y688799D01*
X730267Y687190D01*
X730557Y687070D01*
X730304Y685800D01*
X714956D01*
X714703Y687070D01*
X714993Y687190D01*
X717091Y688799D01*
X718700Y690897D01*
X719712Y693339D01*
X720057Y695960D01*
X719712Y698581D01*
X718700Y701023D01*
X717091Y703121D01*
X714993Y704730D01*
X712551Y705742D01*
X709930Y706087D01*
X707309Y705742D01*
X704867Y704730D01*
X702769Y703121D01*
X701160Y701023D01*
X700148Y698581D01*
X699803Y695960D01*
X700148Y693339D01*
X701160Y690897D01*
X702769Y688799D01*
X704867Y687190D01*
X705157Y687070D01*
X704904Y685800D01*
X689556D01*
X689303Y687070D01*
X689593Y687190D01*
X691691Y688799D01*
X693300Y690897D01*
X694312Y693339D01*
X694657Y695960D01*
X694312Y698581D01*
X693300Y701023D01*
X691691Y703121D01*
X689593Y704730D01*
X687151Y705742D01*
X684530Y706087D01*
X681909Y705742D01*
X679467Y704730D01*
X677369Y703121D01*
X675760Y701023D01*
X674748Y698581D01*
X674403Y695960D01*
X674748Y693339D01*
X675760Y690897D01*
X677369Y688799D01*
X679467Y687190D01*
X679757Y687070D01*
X679504Y685800D01*
X664156D01*
X663903Y687070D01*
X664193Y687190D01*
X666291Y688799D01*
X667900Y690897D01*
X668912Y693339D01*
X669257Y695960D01*
X668912Y698581D01*
X667900Y701023D01*
X666291Y703121D01*
X664193Y704730D01*
X661751Y705742D01*
X659130Y706087D01*
X656509Y705742D01*
X654067Y704730D01*
X651969Y703121D01*
X650360Y701023D01*
X649348Y698581D01*
X649003Y695960D01*
X649348Y693339D01*
X650360Y690897D01*
X651969Y688799D01*
X654067Y687190D01*
X654357Y687070D01*
X654104Y685800D01*
X638756D01*
X638503Y687070D01*
X638793Y687190D01*
X640891Y688799D01*
X642500Y690897D01*
X643512Y693339D01*
X643857Y695960D01*
X643512Y698581D01*
X642500Y701023D01*
X640891Y703121D01*
X638793Y704730D01*
X636351Y705742D01*
X633730Y706087D01*
X631109Y705742D01*
X628667Y704730D01*
X626569Y703121D01*
X624960Y701023D01*
X623948Y698581D01*
X623603Y695960D01*
X623948Y693339D01*
X624960Y690897D01*
X626569Y688799D01*
X628667Y687190D01*
X628957Y687070D01*
X628704Y685800D01*
X613356D01*
X613103Y687070D01*
X613393Y687190D01*
X615491Y688799D01*
X617100Y690897D01*
X618112Y693339D01*
X618457Y695960D01*
X618112Y698581D01*
X617100Y701023D01*
X615491Y703121D01*
X613393Y704730D01*
X610951Y705742D01*
X608330Y706087D01*
X605709Y705742D01*
X603267Y704730D01*
X601169Y703121D01*
X599560Y701023D01*
X598548Y698581D01*
X598203Y695960D01*
X598548Y693339D01*
X599560Y690897D01*
X601169Y688799D01*
X603267Y687190D01*
X603557Y687070D01*
X603304Y685800D01*
X587956D01*
X587703Y687070D01*
X587993Y687190D01*
X590091Y688799D01*
X591700Y690897D01*
X592712Y693339D01*
X593057Y695960D01*
X592712Y698581D01*
X591700Y701023D01*
X590091Y703121D01*
X587993Y704730D01*
X585551Y705742D01*
X582930Y706087D01*
X580309Y705742D01*
X577867Y704730D01*
X575769Y703121D01*
X574160Y701023D01*
X573148Y698581D01*
X572803Y695960D01*
X573148Y693339D01*
X574160Y690897D01*
X575769Y688799D01*
X577867Y687190D01*
X578157Y687070D01*
X577904Y685800D01*
X562556D01*
X562303Y687070D01*
X562593Y687190D01*
X564691Y688799D01*
X566300Y690897D01*
X567312Y693339D01*
X567657Y695960D01*
X567312Y698581D01*
X566300Y701023D01*
X564691Y703121D01*
X562593Y704730D01*
X560151Y705742D01*
X557530Y706087D01*
X554909Y705742D01*
X552467Y704730D01*
X550369Y703121D01*
X548760Y701023D01*
X547748Y698581D01*
X547403Y695960D01*
X547748Y693339D01*
X548760Y690897D01*
X550369Y688799D01*
X552467Y687190D01*
X552757Y687070D01*
X552504Y685800D01*
X537156D01*
X536903Y687070D01*
X537193Y687190D01*
X539291Y688799D01*
X540900Y690897D01*
X541912Y693339D01*
X542257Y695960D01*
X541912Y698581D01*
X540900Y701023D01*
X539291Y703121D01*
X537193Y704730D01*
X534751Y705742D01*
X532130Y706087D01*
X529509Y705742D01*
X527067Y704730D01*
X524969Y703121D01*
X523360Y701023D01*
X522348Y698581D01*
X522003Y695960D01*
X522348Y693339D01*
X523360Y690897D01*
X524969Y688799D01*
X527067Y687190D01*
X527357Y687070D01*
X527104Y685800D01*
X517990D01*
X516770Y685920D01*
X516770Y687070D01*
Y706000D01*
X496690D01*
X496690Y685920D01*
X495470Y685800D01*
X438150D01*
Y839300D01*
X452180D01*
Y850840D01*
Y862380D01*
X438150D01*
Y864700D01*
X477490D01*
Y869209D01*
X477503Y869328D01*
X477503Y869329D01*
X477504Y869331D01*
X477582Y869402D01*
X477816Y869545D01*
X478247Y869721D01*
X478883Y869891D01*
X479714Y870029D01*
X480315Y870082D01*
X480878D01*
X481144Y870073D01*
X482036Y869987D01*
X482771Y869872D01*
X483220Y869766D01*
Y862450D01*
X492760D01*
X502300D01*
Y869812D01*
X502763Y869925D01*
X503462Y870038D01*
X504857Y870142D01*
X508216D01*
X509528Y870064D01*
X509700Y870044D01*
Y869260D01*
X512115D01*
X512194Y869242D01*
X512233Y869248D01*
X512271Y869241D01*
X512368Y869260D01*
X522430D01*
X522780Y869260D01*
X523700D01*
X524050Y869260D01*
X534113D01*
X534210Y869241D01*
X534248Y869248D01*
X534286Y869242D01*
X534365Y869260D01*
X536780D01*
Y869962D01*
X539187Y870142D01*
X541705D01*
X542296Y870090D01*
X543124Y869953D01*
X543757Y869784D01*
X544185Y869610D01*
X544417Y869470D01*
X544488Y869405D01*
X544525Y869057D01*
X544530Y869042D01*
Y866760D01*
X547004D01*
X547100Y866741D01*
X547197Y866760D01*
X547321D01*
X547374Y866755D01*
X547389Y866760D01*
X572751D01*
X572766Y866755D01*
X572819Y866760D01*
X572943D01*
X573040Y866741D01*
X573136Y866760D01*
X575610D01*
Y869042D01*
X575615Y869057D01*
X575652Y869405D01*
X575723Y869470D01*
X575955Y869610D01*
X576383Y869784D01*
X577016Y869953D01*
X577844Y870090D01*
X578435Y870142D01*
X580706D01*
X582018Y870064D01*
X582190Y870044D01*
Y869260D01*
X584605D01*
X584684Y869242D01*
X584723Y869248D01*
X584761Y869241D01*
X584858Y869260D01*
X596770D01*
Y883340D01*
X584858D01*
X584761Y883359D01*
X584723Y883352D01*
X584684Y883358D01*
X584605Y883340D01*
X582190D01*
Y882638D01*
X579784Y882458D01*
X578435D01*
X577844Y882510D01*
X577016Y882647D01*
X576383Y882816D01*
X575955Y882990D01*
X575723Y883130D01*
X575652Y883195D01*
X575615Y883543D01*
X575610Y883558D01*
Y885840D01*
X573136D01*
X573040Y885859D01*
X572943Y885840D01*
X572819D01*
X572766Y885845D01*
X572751Y885840D01*
X547389D01*
X547374Y885845D01*
X547321Y885840D01*
X547197D01*
X547100Y885859D01*
X547004Y885840D01*
X544530D01*
Y883558D01*
X544525Y883543D01*
X544488Y883195D01*
X544417Y883130D01*
X544185Y882990D01*
X543757Y882816D01*
X543124Y882647D01*
X542296Y882510D01*
X541705Y882458D01*
X538265D01*
X536953Y882536D01*
X536780Y882556D01*
Y883340D01*
X534365D01*
X534286Y883358D01*
X534248Y883352D01*
X534210Y883359D01*
X534113Y883340D01*
X524050D01*
X523700Y883340D01*
X522780D01*
X522430Y883340D01*
X512368D01*
X512271Y883359D01*
X512233Y883352D01*
X512194Y883358D01*
X512115Y883340D01*
X509700D01*
Y882638D01*
X507294Y882458D01*
X504432D01*
X504361Y882460D01*
X503456Y882540D01*
X502706Y882647D01*
X502300Y882735D01*
Y884220D01*
X499826D01*
X499729Y884239D01*
X499633Y884220D01*
X485887D01*
X485790Y884239D01*
X485694Y884220D01*
X483220D01*
Y882688D01*
X482799Y882594D01*
X482084Y882489D01*
X480758Y882398D01*
X480315D01*
X479714Y882451D01*
X478883Y882589D01*
X478247Y882760D01*
X477816Y882935D01*
X477582Y883078D01*
X477504Y883149D01*
X477503Y883151D01*
X477503Y883152D01*
X477490Y883271D01*
Y887780D01*
X438150D01*
Y890100D01*
X452180D01*
Y901640D01*
Y913180D01*
X438150D01*
Y1074420D01*
X496690D01*
Y1058345D01*
D02*
G37*
G36*
X879574Y857421D02*
X880070Y857084D01*
X880631Y856788D01*
X881257Y856533D01*
X881949Y856318D01*
X882706Y856145D01*
X883528Y856012D01*
X884415Y855920D01*
X886385Y855860D01*
X878960Y848435D01*
X878950Y849453D01*
X878808Y851292D01*
X878675Y852114D01*
X878502Y852871D01*
X878288Y853563D01*
X878032Y854189D01*
X877736Y854750D01*
X877399Y855247D01*
X877021Y855677D01*
X879143Y857799D01*
X879574Y857421D01*
D02*
G37*
G36*
X886385Y840860D02*
X885367Y840850D01*
X883528Y840708D01*
X882706Y840575D01*
X881949Y840402D01*
X881257Y840188D01*
X880631Y839932D01*
X880070Y839636D01*
X879574Y839299D01*
X879143Y838921D01*
X877021Y841042D01*
X877399Y841473D01*
X877736Y841970D01*
X878032Y842531D01*
X878288Y843157D01*
X878502Y843849D01*
X878675Y844606D01*
X878808Y845428D01*
X878900Y846315D01*
X878960Y848285D01*
X886385Y840860D01*
D02*
G37*
G36*
X753355Y824374D02*
X753400Y823858D01*
X753475Y823404D01*
X753580Y823010D01*
X753715Y822677D01*
X753880Y822404D01*
X754075Y822192D01*
X754300Y822040D01*
X754555Y821949D01*
X754840Y821919D01*
X748840D01*
X749125Y821949D01*
X749380Y822040D01*
X749605Y822192D01*
X749800Y822404D01*
X749965Y822677D01*
X750100Y823010D01*
X750205Y823404D01*
X750280Y823858D01*
X750325Y824374D01*
X750340Y824949D01*
X753340D01*
X753355Y824374D01*
D02*
G37*
G36*
X852168Y913567D02*
Y878533D01*
X852482Y876956D01*
X853375Y875620D01*
X875370Y853624D01*
X875513Y853414D01*
X875682Y853094D01*
X875847Y852689D01*
X875999Y852197D01*
X876132Y851618D01*
X876234Y850985D01*
X876362Y849340D01*
X876369Y848628D01*
X876333Y848360D01*
X876364Y848124D01*
X876314Y846488D01*
X876239Y845768D01*
X876132Y845102D01*
X875999Y844523D01*
X875847Y844031D01*
X875682Y843626D01*
X875513Y843306D01*
X875370Y843096D01*
X847873Y815599D01*
X846700Y816085D01*
Y816140D01*
X824620D01*
Y811989D01*
X776630D01*
Y824520D01*
X762610D01*
Y816480D01*
X760070D01*
Y824520D01*
X755959D01*
Y866714D01*
X820895Y931650D01*
X821373Y932094D01*
X821754Y932398D01*
X821916Y932511D01*
X826530D01*
X827716Y932747D01*
X828722Y933418D01*
X829394Y934424D01*
X829414Y934525D01*
X830792Y934943D01*
X852168Y913567D01*
D02*
G37*
G36*
X772360Y813292D02*
X772418Y812723D01*
X772516Y812176D01*
X772652Y811649D01*
X772828Y811144D01*
X773042Y810659D01*
X773296Y810195D01*
X773589Y809753D01*
X773920Y809331D01*
X774291Y808931D01*
X772169Y806809D01*
X771896Y807041D01*
X771606Y807203D01*
X771301Y807296D01*
X770979Y807321D01*
X770642Y807276D01*
X770289Y807162D01*
X769920Y806980D01*
X769536Y806728D01*
X769135Y806407D01*
X768719Y806017D01*
X767219Y808760D01*
X767622Y809193D01*
X767983Y809644D01*
X768301Y810112D01*
X768577Y810598D01*
X768810Y811101D01*
X769001Y811622D01*
X769149Y812160D01*
X769255Y812717D01*
X769319Y813290D01*
X769340Y813881D01*
X772340D01*
X772360Y813292D01*
D02*
G37*
G36*
X695359Y809655D02*
X695450Y809400D01*
X695602Y809175D01*
X695814Y808980D01*
X696086Y808815D01*
X696420Y808680D01*
X696814Y808575D01*
X697268Y808500D01*
X697784Y808455D01*
X698359Y808440D01*
Y805440D01*
X697784Y805425D01*
X697268Y805380D01*
X696814Y805305D01*
X696420Y805200D01*
X696086Y805065D01*
X695814Y804900D01*
X695602Y804705D01*
X695450Y804480D01*
X695359Y804225D01*
X695329Y803940D01*
Y809940D01*
X695359Y809655D01*
D02*
G37*
G36*
X745498Y730595D02*
X745619Y729037D01*
X745731Y728342D01*
X745878Y727701D01*
X746059Y727115D01*
X746275Y726585D01*
X746526Y726109D01*
X746812Y725689D01*
X747132Y725324D01*
X745335Y723529D01*
X744971Y723848D01*
X744551Y724134D01*
X744075Y724385D01*
X743545Y724601D01*
X742959Y724782D01*
X742318Y724929D01*
X741623Y725041D01*
X740871Y725119D01*
X739203Y725170D01*
X745490Y731457D01*
X745498Y730595D01*
D02*
G37*
G36*
X931429Y704913D02*
X931913Y704598D01*
X932471Y704322D01*
X933103Y704083D01*
X933810Y703884D01*
X934590Y703722D01*
X935445Y703599D01*
X937377Y703468D01*
X938455Y703460D01*
X931030Y696035D01*
X931022Y697113D01*
X930891Y699045D01*
X930768Y699900D01*
X930607Y700680D01*
X930407Y701387D01*
X930168Y702019D01*
X929892Y702577D01*
X929577Y703061D01*
X929223Y703471D01*
X931019Y705267D01*
X931429Y704913D01*
D02*
G37*
G36*
X906471Y703505D02*
X905969Y703121D01*
X904360Y701023D01*
X903348Y698581D01*
X903171Y697230D01*
X913130D01*
Y694690D01*
X903171D01*
X903348Y693339D01*
X904360Y690897D01*
X905969Y688799D01*
X908067Y687190D01*
X908357Y687070D01*
X908104Y685800D01*
X892756D01*
X892503Y687070D01*
X892793Y687190D01*
X894891Y688799D01*
X896500Y690897D01*
X897512Y693339D01*
X897857Y695960D01*
X897512Y698581D01*
X896500Y701023D01*
X894891Y703121D01*
X894389Y703505D01*
X894820Y704775D01*
X906040D01*
X906471Y703505D01*
D02*
G37*
G36*
X881071D02*
X880569Y703121D01*
X878960Y701023D01*
X877948Y698581D01*
X877603Y695960D01*
X877948Y693339D01*
X878960Y690897D01*
X880569Y688799D01*
X882667Y687190D01*
X882957Y687070D01*
X882704Y685800D01*
X867356D01*
X867103Y687070D01*
X867393Y687190D01*
X869491Y688799D01*
X871100Y690897D01*
X872112Y693339D01*
X872457Y695960D01*
X872112Y698581D01*
X871100Y701023D01*
X869491Y703121D01*
X868989Y703505D01*
X869420Y704775D01*
X880640D01*
X881071Y703505D01*
D02*
G37*
G36*
X855671D02*
X855169Y703121D01*
X853560Y701023D01*
X852548Y698581D01*
X852203Y695960D01*
X852548Y693339D01*
X853560Y690897D01*
X855169Y688799D01*
X857267Y687190D01*
X857557Y687070D01*
X857304Y685800D01*
X841956D01*
X841703Y687070D01*
X841993Y687190D01*
X844091Y688799D01*
X845700Y690897D01*
X846712Y693339D01*
X847057Y695960D01*
X846712Y698581D01*
X845700Y701023D01*
X844091Y703121D01*
X843589Y703505D01*
X844020Y704775D01*
X855240D01*
X855671Y703505D01*
D02*
G37*
G36*
X830271D02*
X829769Y703121D01*
X828160Y701023D01*
X827148Y698581D01*
X826803Y695960D01*
X827148Y693339D01*
X828160Y690897D01*
X829769Y688799D01*
X831867Y687190D01*
X832157Y687070D01*
X831904Y685800D01*
X816556D01*
X816303Y687070D01*
X816593Y687190D01*
X818691Y688799D01*
X820300Y690897D01*
X821312Y693339D01*
X821657Y695960D01*
X821312Y698581D01*
X820300Y701023D01*
X818691Y703121D01*
X818189Y703505D01*
X818620Y704775D01*
X829840D01*
X830271Y703505D01*
D02*
G37*
G36*
X804871D02*
X804369Y703121D01*
X802760Y701023D01*
X801748Y698581D01*
X801403Y695960D01*
X801748Y693339D01*
X802760Y690897D01*
X804369Y688799D01*
X806467Y687190D01*
X806757Y687070D01*
X806504Y685800D01*
X791156D01*
X790903Y687070D01*
X791193Y687190D01*
X793291Y688799D01*
X794900Y690897D01*
X795912Y693339D01*
X796257Y695960D01*
X795912Y698581D01*
X794900Y701023D01*
X793291Y703121D01*
X792789Y703505D01*
X793220Y704775D01*
X804440D01*
X804871Y703505D01*
D02*
G37*
G36*
X779471D02*
X778969Y703121D01*
X777360Y701023D01*
X776348Y698581D01*
X776003Y695960D01*
X776348Y693339D01*
X777360Y690897D01*
X778969Y688799D01*
X781067Y687190D01*
X781357Y687070D01*
X781104Y685800D01*
X765756D01*
X765503Y687070D01*
X765793Y687190D01*
X767891Y688799D01*
X769500Y690897D01*
X770512Y693339D01*
X770857Y695960D01*
X770512Y698581D01*
X769500Y701023D01*
X767891Y703121D01*
X767389Y703505D01*
X767820Y704775D01*
X779040D01*
X779471Y703505D01*
D02*
G37*
%LPC*%
G36*
X819150Y1047660D02*
Y1040130D01*
X826680D01*
X826541Y1041181D01*
X825645Y1043343D01*
X824220Y1045200D01*
X822363Y1046625D01*
X820201Y1047521D01*
X819150Y1047660D01*
D02*
G37*
G36*
X816610D02*
X815559Y1047521D01*
X813397Y1046625D01*
X811540Y1045200D01*
X810115Y1043343D01*
X809219Y1041181D01*
X809081Y1040130D01*
X816610D01*
Y1047660D01*
D02*
G37*
G36*
X726050Y1046900D02*
X716280D01*
Y1040130D01*
X726050D01*
Y1046900D01*
D02*
G37*
G36*
X657860Y1038770D02*
Y1031240D01*
X665389D01*
X665251Y1032291D01*
X664355Y1034453D01*
X662930Y1036310D01*
X661073Y1037735D01*
X658911Y1038631D01*
X657860Y1038770D01*
D02*
G37*
G36*
X655320D02*
X654269Y1038631D01*
X652107Y1037735D01*
X650250Y1036310D01*
X648825Y1034453D01*
X647929Y1032291D01*
X647791Y1031240D01*
X655320D01*
Y1038770D01*
D02*
G37*
G36*
X665389Y1028700D02*
X657860D01*
Y1021171D01*
X658911Y1021309D01*
X661073Y1022205D01*
X662930Y1023630D01*
X664355Y1025487D01*
X665251Y1027649D01*
X665389Y1028700D01*
D02*
G37*
G36*
X655320D02*
X647791D01*
X647929Y1027649D01*
X648825Y1025487D01*
X650250Y1023630D01*
X652107Y1022205D01*
X654269Y1021309D01*
X655320Y1021171D01*
Y1028700D01*
D02*
G37*
G36*
X713650Y949960D02*
X706120D01*
Y942430D01*
X707171Y942569D01*
X709333Y943465D01*
X711190Y944890D01*
X712615Y946747D01*
X713511Y948909D01*
X713650Y949960D01*
D02*
G37*
G36*
X703580D02*
X696050D01*
X696189Y948909D01*
X697085Y946747D01*
X698510Y944890D01*
X700367Y943465D01*
X702529Y942569D01*
X703580Y942430D01*
Y949960D01*
D02*
G37*
G36*
X886270Y997438D02*
Y991270D01*
X892438D01*
X892346Y991968D01*
X891586Y993802D01*
X890377Y995377D01*
X888802Y996586D01*
X886968Y997346D01*
X886270Y997438D01*
D02*
G37*
G36*
X883730D02*
X883031Y997346D01*
X881197Y996586D01*
X879622Y995377D01*
X878414Y993802D01*
X877654Y991968D01*
X877562Y991270D01*
X883730D01*
Y997438D01*
D02*
G37*
G36*
X851550Y991990D02*
X843280D01*
Y985220D01*
X851550D01*
Y991990D01*
D02*
G37*
G36*
X892438Y988730D02*
X886270D01*
Y982562D01*
X886968Y982654D01*
X888802Y983413D01*
X890377Y984622D01*
X891586Y986197D01*
X892346Y988031D01*
X892438Y988730D01*
D02*
G37*
G36*
X883730D02*
X877562D01*
X877654Y988031D01*
X878414Y986197D01*
X879622Y984622D01*
X881197Y983413D01*
X883031Y982654D01*
X883730Y982562D01*
Y988730D01*
D02*
G37*
G36*
X493730Y1057438D02*
X493032Y1057346D01*
X491197Y1056586D01*
X489622Y1055377D01*
X488414Y1053802D01*
X487654Y1051968D01*
X487562Y1051270D01*
X493730D01*
Y1057438D01*
D02*
G37*
G36*
X466270D02*
Y1051270D01*
X472438D01*
X472346Y1051968D01*
X471586Y1053802D01*
X470377Y1055377D01*
X468802Y1056586D01*
X466968Y1057346D01*
X466270Y1057438D01*
D02*
G37*
G36*
X463730D02*
X463032Y1057346D01*
X461197Y1056586D01*
X459622Y1055377D01*
X458414Y1053802D01*
X457654Y1051968D01*
X457562Y1051270D01*
X463730D01*
Y1057438D01*
D02*
G37*
G36*
X502438Y1048730D02*
X496270D01*
Y1042562D01*
X496968Y1042654D01*
X498802Y1043413D01*
X500377Y1044622D01*
X501586Y1046197D01*
X502346Y1048031D01*
X502438Y1048730D01*
D02*
G37*
G36*
X493730D02*
X487562D01*
X487654Y1048031D01*
X488414Y1046197D01*
X489622Y1044622D01*
X491197Y1043413D01*
X493032Y1042654D01*
X493730Y1042562D01*
Y1048730D01*
D02*
G37*
G36*
X472438D02*
X466270D01*
Y1042562D01*
X466968Y1042654D01*
X468802Y1043413D01*
X470377Y1044622D01*
X471586Y1046197D01*
X472346Y1048031D01*
X472438Y1048730D01*
D02*
G37*
G36*
X463730D02*
X457562D01*
X457654Y1048031D01*
X458414Y1046197D01*
X459622Y1044622D01*
X461197Y1043413D01*
X463032Y1042654D01*
X463730Y1042562D01*
Y1048730D01*
D02*
G37*
G36*
X511270Y1027438D02*
Y1021270D01*
X517438D01*
X517346Y1021968D01*
X516586Y1023802D01*
X515377Y1025377D01*
X513802Y1026586D01*
X511968Y1027346D01*
X511270Y1027438D01*
D02*
G37*
G36*
X508730D02*
X508032Y1027346D01*
X506197Y1026586D01*
X504622Y1025377D01*
X503414Y1023802D01*
X502654Y1021968D01*
X502562Y1021270D01*
X508730D01*
Y1027438D01*
D02*
G37*
G36*
X481270D02*
Y1021270D01*
X487438D01*
X487346Y1021968D01*
X486586Y1023802D01*
X485377Y1025377D01*
X483802Y1026586D01*
X481968Y1027346D01*
X481270Y1027438D01*
D02*
G37*
G36*
X478730D02*
X478032Y1027346D01*
X476197Y1026586D01*
X474622Y1025377D01*
X473414Y1023802D01*
X472654Y1021968D01*
X472562Y1021270D01*
X478730D01*
Y1027438D01*
D02*
G37*
G36*
X451270D02*
Y1021270D01*
X457438D01*
X457346Y1021968D01*
X456586Y1023802D01*
X455377Y1025377D01*
X453802Y1026586D01*
X451968Y1027346D01*
X451270Y1027438D01*
D02*
G37*
G36*
X448730D02*
X448032Y1027346D01*
X446197Y1026586D01*
X444622Y1025377D01*
X443414Y1023802D01*
X442654Y1021968D01*
X442562Y1021270D01*
X448730D01*
Y1027438D01*
D02*
G37*
G36*
X538730Y1018730D02*
X532562D01*
X532654Y1018031D01*
X533414Y1016197D01*
X534622Y1014622D01*
X536197Y1013413D01*
X538032Y1012654D01*
X538730Y1012562D01*
Y1018730D01*
D02*
G37*
G36*
X517438D02*
X511270D01*
Y1012562D01*
X511968Y1012654D01*
X513802Y1013413D01*
X515377Y1014622D01*
X516586Y1016197D01*
X517346Y1018031D01*
X517438Y1018730D01*
D02*
G37*
G36*
X508730D02*
X502562D01*
X502654Y1018031D01*
X503414Y1016197D01*
X504622Y1014622D01*
X506197Y1013413D01*
X508032Y1012654D01*
X508730Y1012562D01*
Y1018730D01*
D02*
G37*
G36*
X487438D02*
X481270D01*
Y1012562D01*
X481968Y1012654D01*
X483802Y1013413D01*
X485377Y1014622D01*
X486586Y1016197D01*
X487346Y1018031D01*
X487438Y1018730D01*
D02*
G37*
G36*
X478730D02*
X472562D01*
X472654Y1018031D01*
X473414Y1016197D01*
X474622Y1014622D01*
X476197Y1013413D01*
X478032Y1012654D01*
X478730Y1012562D01*
Y1018730D01*
D02*
G37*
G36*
X457438D02*
X451270D01*
Y1012562D01*
X451968Y1012654D01*
X453802Y1013413D01*
X455377Y1014622D01*
X456586Y1016197D01*
X457346Y1018031D01*
X457438Y1018730D01*
D02*
G37*
G36*
X448730D02*
X442562D01*
X442654Y1018031D01*
X443414Y1016197D01*
X444622Y1014622D01*
X446197Y1013413D01*
X448032Y1012654D01*
X448730Y1012562D01*
Y1018730D01*
D02*
G37*
G36*
X556270Y997438D02*
Y991270D01*
X562438D01*
X562346Y991968D01*
X561586Y993802D01*
X560377Y995377D01*
X558802Y996586D01*
X556968Y997346D01*
X556270Y997438D01*
D02*
G37*
G36*
X553730D02*
X553032Y997346D01*
X551197Y996586D01*
X549622Y995377D01*
X548414Y993802D01*
X547654Y991968D01*
X547562Y991270D01*
X553730D01*
Y997438D01*
D02*
G37*
G36*
X526270D02*
Y991270D01*
X532438D01*
X532346Y991968D01*
X531586Y993802D01*
X530377Y995377D01*
X528802Y996586D01*
X526968Y997346D01*
X526270Y997438D01*
D02*
G37*
G36*
X523730D02*
X523032Y997346D01*
X521197Y996586D01*
X519622Y995377D01*
X518414Y993802D01*
X517654Y991968D01*
X517562Y991270D01*
X523730D01*
Y997438D01*
D02*
G37*
G36*
X496270D02*
Y991270D01*
X502438D01*
X502346Y991968D01*
X501586Y993802D01*
X500377Y995377D01*
X498802Y996586D01*
X496968Y997346D01*
X496270Y997438D01*
D02*
G37*
G36*
X493730D02*
X493032Y997346D01*
X491197Y996586D01*
X489622Y995377D01*
X488414Y993802D01*
X487654Y991968D01*
X487562Y991270D01*
X493730D01*
Y997438D01*
D02*
G37*
G36*
X466270D02*
Y991270D01*
X472438D01*
X472346Y991968D01*
X471586Y993802D01*
X470377Y995377D01*
X468802Y996586D01*
X466968Y997346D01*
X466270Y997438D01*
D02*
G37*
G36*
X463730D02*
X463032Y997346D01*
X461197Y996586D01*
X459622Y995377D01*
X458414Y993802D01*
X457654Y991968D01*
X457562Y991270D01*
X463730D01*
Y997438D01*
D02*
G37*
G36*
X562438Y988730D02*
X556270D01*
Y982562D01*
X556968Y982654D01*
X558802Y983413D01*
X560377Y984622D01*
X561586Y986197D01*
X562346Y988031D01*
X562438Y988730D01*
D02*
G37*
G36*
X553730D02*
X547562D01*
X547654Y988031D01*
X548414Y986197D01*
X549622Y984622D01*
X551197Y983413D01*
X553032Y982654D01*
X553730Y982562D01*
Y988730D01*
D02*
G37*
G36*
X532438D02*
X526270D01*
Y982562D01*
X526968Y982654D01*
X528802Y983413D01*
X530377Y984622D01*
X531586Y986197D01*
X532346Y988031D01*
X532438Y988730D01*
D02*
G37*
G36*
X523730D02*
X517562D01*
X517654Y988031D01*
X518414Y986197D01*
X519622Y984622D01*
X521197Y983413D01*
X523032Y982654D01*
X523730Y982562D01*
Y988730D01*
D02*
G37*
G36*
X502438D02*
X496270D01*
Y982562D01*
X496968Y982654D01*
X498802Y983413D01*
X500377Y984622D01*
X501586Y986197D01*
X502346Y988031D01*
X502438Y988730D01*
D02*
G37*
G36*
X493730D02*
X487562D01*
X487654Y988031D01*
X488414Y986197D01*
X489622Y984622D01*
X491197Y983413D01*
X493032Y982654D01*
X493730Y982562D01*
Y988730D01*
D02*
G37*
G36*
X472438D02*
X466270D01*
Y982562D01*
X466968Y982654D01*
X468802Y983413D01*
X470377Y984622D01*
X471586Y986197D01*
X472346Y988031D01*
X472438Y988730D01*
D02*
G37*
G36*
X463730D02*
X457562D01*
X457654Y988031D01*
X458414Y986197D01*
X459622Y984622D01*
X461197Y983413D01*
X463032Y982654D01*
X463730Y982562D01*
Y988730D01*
D02*
G37*
G36*
X571270Y967438D02*
Y961270D01*
X577438D01*
X577346Y961968D01*
X576586Y963802D01*
X575377Y965377D01*
X573802Y966586D01*
X571968Y967346D01*
X571270Y967438D01*
D02*
G37*
G36*
X568730D02*
X568032Y967346D01*
X566197Y966586D01*
X564622Y965377D01*
X563414Y963802D01*
X562654Y961968D01*
X562562Y961270D01*
X568730D01*
Y967438D01*
D02*
G37*
G36*
X541270D02*
Y961270D01*
X547438D01*
X547346Y961968D01*
X546586Y963802D01*
X545377Y965377D01*
X543802Y966586D01*
X541968Y967346D01*
X541270Y967438D01*
D02*
G37*
G36*
X538730D02*
X538032Y967346D01*
X536197Y966586D01*
X534622Y965377D01*
X533414Y963802D01*
X532654Y961968D01*
X532562Y961270D01*
X538730D01*
Y967438D01*
D02*
G37*
G36*
X511270D02*
Y961270D01*
X517438D01*
X517346Y961968D01*
X516586Y963802D01*
X515377Y965377D01*
X513802Y966586D01*
X511968Y967346D01*
X511270Y967438D01*
D02*
G37*
G36*
X508730D02*
X508032Y967346D01*
X506197Y966586D01*
X504622Y965377D01*
X503414Y963802D01*
X502654Y961968D01*
X502562Y961270D01*
X508730D01*
Y967438D01*
D02*
G37*
G36*
X481270D02*
Y961270D01*
X487438D01*
X487346Y961968D01*
X486586Y963802D01*
X485377Y965377D01*
X483802Y966586D01*
X481968Y967346D01*
X481270Y967438D01*
D02*
G37*
G36*
X478730D02*
X478032Y967346D01*
X476197Y966586D01*
X474622Y965377D01*
X473414Y963802D01*
X472654Y961968D01*
X472562Y961270D01*
X478730D01*
Y967438D01*
D02*
G37*
G36*
X451270D02*
Y961270D01*
X457438D01*
X457346Y961968D01*
X456586Y963802D01*
X455377Y965377D01*
X453802Y966586D01*
X451968Y967346D01*
X451270Y967438D01*
D02*
G37*
G36*
X448730D02*
X448032Y967346D01*
X446197Y966586D01*
X444622Y965377D01*
X443414Y963802D01*
X442654Y961968D01*
X442562Y961270D01*
X448730D01*
Y967438D01*
D02*
G37*
G36*
X598730Y958730D02*
X592562D01*
X592654Y958031D01*
X593414Y956197D01*
X594622Y954622D01*
X596197Y953413D01*
X598032Y952654D01*
X598730Y952562D01*
Y958730D01*
D02*
G37*
G36*
X577438D02*
X571270D01*
Y952562D01*
X571968Y952654D01*
X573802Y953413D01*
X575377Y954622D01*
X576586Y956197D01*
X577346Y958031D01*
X577438Y958730D01*
D02*
G37*
G36*
X568730D02*
X562562D01*
X562654Y958031D01*
X563414Y956197D01*
X564622Y954622D01*
X566197Y953413D01*
X568032Y952654D01*
X568730Y952562D01*
Y958730D01*
D02*
G37*
G36*
X547438D02*
X541270D01*
Y952562D01*
X541968Y952654D01*
X543802Y953413D01*
X545377Y954622D01*
X546586Y956197D01*
X547346Y958031D01*
X547438Y958730D01*
D02*
G37*
G36*
X538730D02*
X532562D01*
X532654Y958031D01*
X533414Y956197D01*
X534622Y954622D01*
X536197Y953413D01*
X538032Y952654D01*
X538730Y952562D01*
Y958730D01*
D02*
G37*
G36*
X517438D02*
X511270D01*
Y952562D01*
X511968Y952654D01*
X513802Y953413D01*
X515377Y954622D01*
X516586Y956197D01*
X517346Y958031D01*
X517438Y958730D01*
D02*
G37*
G36*
X508730D02*
X502562D01*
X502654Y958031D01*
X503414Y956197D01*
X504622Y954622D01*
X506197Y953413D01*
X508032Y952654D01*
X508730Y952562D01*
Y958730D01*
D02*
G37*
G36*
X487438D02*
X481270D01*
Y952562D01*
X481968Y952654D01*
X483802Y953413D01*
X485377Y954622D01*
X486586Y956197D01*
X487346Y958031D01*
X487438Y958730D01*
D02*
G37*
G36*
X478730D02*
X472562D01*
X472654Y958031D01*
X473414Y956197D01*
X474622Y954622D01*
X476197Y953413D01*
X478032Y952654D01*
X478730Y952562D01*
Y958730D01*
D02*
G37*
G36*
X457438D02*
X451270D01*
Y952562D01*
X451968Y952654D01*
X453802Y953413D01*
X455377Y954622D01*
X456586Y956197D01*
X457346Y958031D01*
X457438Y958730D01*
D02*
G37*
G36*
X448730D02*
X442562D01*
X442654Y958031D01*
X443414Y956197D01*
X444622Y954622D01*
X446197Y953413D01*
X448032Y952654D01*
X448730Y952562D01*
Y958730D01*
D02*
G37*
G36*
X645850Y939150D02*
X640080D01*
Y933880D01*
X645850D01*
Y939150D01*
D02*
G37*
G36*
X637540D02*
X631770D01*
Y933880D01*
X637540D01*
Y939150D01*
D02*
G37*
G36*
X807128Y935840D02*
X801550D01*
Y932762D01*
X804092D01*
X805254Y932993D01*
X806239Y933651D01*
X806897Y934636D01*
X807128Y935798D01*
Y935840D01*
D02*
G37*
G36*
X586270Y937438D02*
Y931270D01*
X592438D01*
X592346Y931968D01*
X591586Y933802D01*
X590377Y935377D01*
X588802Y936586D01*
X586968Y937346D01*
X586270Y937438D01*
D02*
G37*
G36*
X583730D02*
X583032Y937346D01*
X581197Y936586D01*
X579622Y935377D01*
X578414Y933802D01*
X577654Y931968D01*
X577562Y931270D01*
X583730D01*
Y937438D01*
D02*
G37*
G36*
X556270D02*
Y931270D01*
X562438D01*
X562346Y931968D01*
X561586Y933802D01*
X560377Y935377D01*
X558802Y936586D01*
X556968Y937346D01*
X556270Y937438D01*
D02*
G37*
G36*
X553730D02*
X553032Y937346D01*
X551197Y936586D01*
X549622Y935377D01*
X548414Y933802D01*
X547654Y931968D01*
X547562Y931270D01*
X553730D01*
Y937438D01*
D02*
G37*
G36*
X526270D02*
Y931270D01*
X532438D01*
X532346Y931968D01*
X531586Y933802D01*
X530377Y935377D01*
X528802Y936586D01*
X526968Y937346D01*
X526270Y937438D01*
D02*
G37*
G36*
X523730D02*
X523032Y937346D01*
X521197Y936586D01*
X519622Y935377D01*
X518414Y933802D01*
X517654Y931968D01*
X517562Y931270D01*
X523730D01*
Y937438D01*
D02*
G37*
G36*
X496270D02*
Y931270D01*
X502438D01*
X502346Y931968D01*
X501586Y933802D01*
X500377Y935377D01*
X498802Y936586D01*
X496968Y937346D01*
X496270Y937438D01*
D02*
G37*
G36*
X493730D02*
X493032Y937346D01*
X491197Y936586D01*
X489622Y935377D01*
X488414Y933802D01*
X487654Y931968D01*
X487562Y931270D01*
X493730D01*
Y937438D01*
D02*
G37*
G36*
X466270D02*
Y931270D01*
X472438D01*
X472346Y931968D01*
X471586Y933802D01*
X470377Y935377D01*
X468802Y936586D01*
X466968Y937346D01*
X466270Y937438D01*
D02*
G37*
G36*
X463730D02*
X463032Y937346D01*
X461197Y936586D01*
X459622Y935377D01*
X458414Y933802D01*
X457654Y931968D01*
X457562Y931270D01*
X463730D01*
Y937438D01*
D02*
G37*
G36*
X592438Y928730D02*
X586270D01*
Y922562D01*
X586968Y922654D01*
X588802Y923413D01*
X590377Y924622D01*
X591586Y926197D01*
X592346Y928031D01*
X592438Y928730D01*
D02*
G37*
G36*
X583730D02*
X577562D01*
X577654Y928031D01*
X578414Y926197D01*
X579622Y924622D01*
X581197Y923413D01*
X583032Y922654D01*
X583730Y922562D01*
Y928730D01*
D02*
G37*
G36*
X562438D02*
X556270D01*
Y922562D01*
X556968Y922654D01*
X558802Y923413D01*
X560377Y924622D01*
X561586Y926197D01*
X562346Y928031D01*
X562438Y928730D01*
D02*
G37*
G36*
X553730D02*
X547562D01*
X547654Y928031D01*
X548414Y926197D01*
X549622Y924622D01*
X551197Y923413D01*
X553032Y922654D01*
X553730Y922562D01*
Y928730D01*
D02*
G37*
G36*
X532438D02*
X526270D01*
Y922562D01*
X526968Y922654D01*
X528802Y923413D01*
X530377Y924622D01*
X531586Y926197D01*
X532346Y928031D01*
X532438Y928730D01*
D02*
G37*
G36*
X523730D02*
X517562D01*
X517654Y928031D01*
X518414Y926197D01*
X519622Y924622D01*
X521197Y923413D01*
X523032Y922654D01*
X523730Y922562D01*
Y928730D01*
D02*
G37*
G36*
X502438D02*
X496270D01*
Y922562D01*
X496968Y922654D01*
X498802Y923413D01*
X500377Y924622D01*
X501586Y926197D01*
X502346Y928031D01*
X502438Y928730D01*
D02*
G37*
G36*
X493730D02*
X487562D01*
X487654Y928031D01*
X488414Y926197D01*
X489622Y924622D01*
X491197Y923413D01*
X493032Y922654D01*
X493730Y922562D01*
Y928730D01*
D02*
G37*
G36*
X472438D02*
X466270D01*
Y922562D01*
X466968Y922654D01*
X468802Y923413D01*
X470377Y924622D01*
X471586Y926197D01*
X472346Y928031D01*
X472438Y928730D01*
D02*
G37*
G36*
X463730D02*
X457562D01*
X457654Y928031D01*
X458414Y926197D01*
X459622Y924622D01*
X461197Y923413D01*
X463032Y922654D01*
X463730Y922562D01*
Y928730D01*
D02*
G37*
G36*
X769620Y919480D02*
X762091D01*
X762229Y918429D01*
X763125Y916267D01*
X764550Y914410D01*
X766407Y912985D01*
X768569Y912089D01*
X769620Y911951D01*
Y919480D01*
D02*
G37*
G36*
X477490Y913180D02*
X454720D01*
Y902910D01*
X477490D01*
Y913180D01*
D02*
G37*
G36*
X751270Y907438D02*
Y901270D01*
X757438D01*
X757346Y901968D01*
X756586Y903802D01*
X755377Y905377D01*
X753802Y906586D01*
X751968Y907346D01*
X751270Y907438D01*
D02*
G37*
G36*
X748730D02*
X748031Y907346D01*
X746197Y906586D01*
X744622Y905377D01*
X743414Y903802D01*
X742654Y901968D01*
X742562Y901270D01*
X748730D01*
Y907438D01*
D02*
G37*
G36*
X571270D02*
Y901270D01*
X577438D01*
X577346Y901968D01*
X576586Y903802D01*
X575377Y905377D01*
X573802Y906586D01*
X571968Y907346D01*
X571270Y907438D01*
D02*
G37*
G36*
X568730D02*
X568032Y907346D01*
X566197Y906586D01*
X564622Y905377D01*
X563414Y903802D01*
X562654Y901968D01*
X562562Y901270D01*
X568730D01*
Y907438D01*
D02*
G37*
G36*
X541270D02*
Y901270D01*
X547438D01*
X547346Y901968D01*
X546586Y903802D01*
X545377Y905377D01*
X543802Y906586D01*
X541968Y907346D01*
X541270Y907438D01*
D02*
G37*
G36*
X538730D02*
X538032Y907346D01*
X536197Y906586D01*
X534622Y905377D01*
X533414Y903802D01*
X532654Y901968D01*
X532562Y901270D01*
X538730D01*
Y907438D01*
D02*
G37*
G36*
X511270D02*
Y901270D01*
X517438D01*
X517346Y901968D01*
X516586Y903802D01*
X515377Y905377D01*
X513802Y906586D01*
X511968Y907346D01*
X511270Y907438D01*
D02*
G37*
G36*
X508730D02*
X508032Y907346D01*
X506197Y906586D01*
X504622Y905377D01*
X503414Y903802D01*
X502654Y901968D01*
X502562Y901270D01*
X508730D01*
Y907438D01*
D02*
G37*
G36*
X757438Y898730D02*
X751270D01*
Y892562D01*
X751968Y892654D01*
X753802Y893414D01*
X755377Y894622D01*
X756586Y896197D01*
X757346Y898031D01*
X757438Y898730D01*
D02*
G37*
G36*
X577438D02*
X571270D01*
Y892562D01*
X571968Y892654D01*
X573802Y893414D01*
X575377Y894622D01*
X576586Y896197D01*
X577346Y898031D01*
X577438Y898730D01*
D02*
G37*
G36*
X568730D02*
X562562D01*
X562654Y898031D01*
X563414Y896197D01*
X564622Y894622D01*
X566197Y893414D01*
X568032Y892654D01*
X568730Y892562D01*
Y898730D01*
D02*
G37*
G36*
X547438D02*
X541270D01*
Y892562D01*
X541968Y892654D01*
X543802Y893414D01*
X545377Y894622D01*
X546586Y896197D01*
X547346Y898031D01*
X547438Y898730D01*
D02*
G37*
G36*
X538730D02*
X532562D01*
X532654Y898031D01*
X533414Y896197D01*
X534622Y894622D01*
X536197Y893414D01*
X538032Y892654D01*
X538730Y892562D01*
Y898730D01*
D02*
G37*
G36*
X517438D02*
X511270D01*
Y892562D01*
X511968Y892654D01*
X513802Y893414D01*
X515377Y894622D01*
X516586Y896197D01*
X517346Y898031D01*
X517438Y898730D01*
D02*
G37*
G36*
X508730D02*
X502562D01*
X502654Y898031D01*
X503414Y896197D01*
X504622Y894622D01*
X506197Y893414D01*
X508032Y892654D01*
X508730Y892562D01*
Y898730D01*
D02*
G37*
G36*
X477490Y900370D02*
X454720D01*
Y890100D01*
X477490D01*
Y900370D01*
D02*
G37*
G36*
X621770Y873840D02*
X615750D01*
Y868070D01*
X621770D01*
Y873840D01*
D02*
G37*
G36*
X613210D02*
X607190D01*
Y868070D01*
X613210D01*
Y873840D01*
D02*
G37*
G36*
X886460Y883887D02*
X883839Y883542D01*
X881397Y882530D01*
X879299Y880921D01*
X877690Y878823D01*
X876678Y876381D01*
X876333Y873760D01*
X876678Y871139D01*
X877690Y868697D01*
X879299Y866599D01*
X881397Y864990D01*
X883839Y863978D01*
X886460Y863633D01*
X889081Y863978D01*
X891523Y864990D01*
X893621Y866599D01*
X895230Y868697D01*
X896242Y871139D01*
X896587Y873760D01*
X896242Y876381D01*
X895230Y878823D01*
X893621Y880921D01*
X891523Y882530D01*
X889081Y883542D01*
X886460Y883887D01*
D02*
G37*
G36*
X708660Y869859D02*
Y862330D01*
X716189D01*
X716051Y863381D01*
X715155Y865543D01*
X713730Y867400D01*
X711873Y868825D01*
X709711Y869721D01*
X708660Y869859D01*
D02*
G37*
G36*
X706120D02*
X705069Y869721D01*
X702907Y868825D01*
X701050Y867400D01*
X699625Y865543D01*
X698729Y863381D01*
X698590Y862330D01*
X706120D01*
Y869859D01*
D02*
G37*
G36*
X696610Y868800D02*
X688340D01*
Y862030D01*
X696610D01*
Y868800D01*
D02*
G37*
G36*
X685800D02*
X677530D01*
Y862030D01*
X685800D01*
Y868800D01*
D02*
G37*
G36*
X659780D02*
X651510D01*
Y862030D01*
X659780D01*
Y868800D01*
D02*
G37*
G36*
X648970D02*
X640700D01*
Y862030D01*
X648970D01*
Y868800D01*
D02*
G37*
G36*
X621770Y865530D02*
X615750D01*
Y859760D01*
X621770D01*
Y865530D01*
D02*
G37*
G36*
X613210D02*
X607190D01*
Y859760D01*
X613210D01*
Y865530D01*
D02*
G37*
G36*
X502300Y859910D02*
X494030D01*
Y853140D01*
X502300D01*
Y859910D01*
D02*
G37*
G36*
X491490D02*
X483220D01*
Y853140D01*
X491490D01*
Y859910D01*
D02*
G37*
G36*
X716189Y859790D02*
X708660D01*
Y852261D01*
X709711Y852399D01*
X711873Y853295D01*
X713730Y854720D01*
X715155Y856577D01*
X716051Y858739D01*
X716189Y859790D01*
D02*
G37*
G36*
X706120D02*
X698590D01*
X698729Y858739D01*
X699625Y856577D01*
X701050Y854720D01*
X702907Y853295D01*
X705069Y852399D01*
X706120Y852261D01*
Y859790D01*
D02*
G37*
G36*
X645160Y859699D02*
Y852170D01*
X652690D01*
X652551Y853221D01*
X651655Y855383D01*
X650230Y857240D01*
X648373Y858665D01*
X646211Y859561D01*
X645160Y859699D01*
D02*
G37*
G36*
X642620D02*
X641569Y859561D01*
X639407Y858665D01*
X637550Y857240D01*
X636125Y855383D01*
X635229Y853221D01*
X635090Y852170D01*
X642620D01*
Y859699D01*
D02*
G37*
G36*
X477490Y862380D02*
X454720D01*
Y852110D01*
X477490D01*
Y862380D01*
D02*
G37*
G36*
X652690Y849630D02*
X645160D01*
Y842101D01*
X646211Y842239D01*
X648373Y843135D01*
X650230Y844560D01*
X651655Y846417D01*
X652551Y848579D01*
X652690Y849630D01*
D02*
G37*
G36*
X642620D02*
X635090D01*
X635229Y848579D01*
X636125Y846417D01*
X637550Y844560D01*
X639407Y843135D01*
X641569Y842239D01*
X642620Y842101D01*
Y849630D01*
D02*
G37*
G36*
X571270Y847438D02*
Y841270D01*
X577438D01*
X577346Y841968D01*
X576586Y843802D01*
X575377Y845377D01*
X573802Y846586D01*
X571968Y847346D01*
X571270Y847438D01*
D02*
G37*
G36*
X568730D02*
X568032Y847346D01*
X566197Y846586D01*
X564622Y845377D01*
X563414Y843802D01*
X562654Y841968D01*
X562562Y841270D01*
X568730D01*
Y847438D01*
D02*
G37*
G36*
X541270D02*
Y841270D01*
X547438D01*
X547346Y841968D01*
X546586Y843802D01*
X545377Y845377D01*
X543802Y846586D01*
X541968Y847346D01*
X541270Y847438D01*
D02*
G37*
G36*
X538730D02*
X538032Y847346D01*
X536197Y846586D01*
X534622Y845377D01*
X533414Y843802D01*
X532654Y841968D01*
X532562Y841270D01*
X538730D01*
Y847438D01*
D02*
G37*
G36*
X511270D02*
Y841270D01*
X517438D01*
X517346Y841968D01*
X516586Y843802D01*
X515377Y845377D01*
X513802Y846586D01*
X511968Y847346D01*
X511270Y847438D01*
D02*
G37*
G36*
X508730D02*
X508032Y847346D01*
X506197Y846586D01*
X504622Y845377D01*
X503414Y843802D01*
X502654Y841968D01*
X502562Y841270D01*
X508730D01*
Y847438D01*
D02*
G37*
G36*
X477490Y849570D02*
X454720D01*
Y839300D01*
X477490D01*
Y849570D01*
D02*
G37*
G36*
X577438Y838730D02*
X571270D01*
Y832562D01*
X571968Y832654D01*
X573802Y833414D01*
X575377Y834622D01*
X576586Y836197D01*
X577346Y838031D01*
X577438Y838730D01*
D02*
G37*
G36*
X568730D02*
X562562D01*
X562654Y838031D01*
X563414Y836197D01*
X564622Y834622D01*
X566197Y833414D01*
X568032Y832654D01*
X568730Y832562D01*
Y838730D01*
D02*
G37*
G36*
X547438D02*
X541270D01*
Y832562D01*
X541968Y832654D01*
X543802Y833414D01*
X545377Y834622D01*
X546586Y836197D01*
X547346Y838031D01*
X547438Y838730D01*
D02*
G37*
G36*
X538730D02*
X532562D01*
X532654Y838031D01*
X533414Y836197D01*
X534622Y834622D01*
X536197Y833414D01*
X538032Y832654D01*
X538730Y832562D01*
Y838730D01*
D02*
G37*
G36*
X517438D02*
X511270D01*
Y832562D01*
X511968Y832654D01*
X513802Y833414D01*
X515377Y834622D01*
X516586Y836197D01*
X517346Y838031D01*
X517438Y838730D01*
D02*
G37*
G36*
X508730D02*
X502562D01*
X502654Y838031D01*
X503414Y836197D01*
X504622Y834622D01*
X506197Y833414D01*
X508032Y832654D01*
X508730Y832562D01*
Y838730D01*
D02*
G37*
G36*
X887730Y832919D02*
Y824230D01*
X896419D01*
X896242Y825581D01*
X895230Y828023D01*
X893621Y830121D01*
X891523Y831730D01*
X889081Y832742D01*
X887730Y832919D01*
D02*
G37*
G36*
X885190D02*
X883839Y832742D01*
X881397Y831730D01*
X879299Y830121D01*
X877690Y828023D01*
X876678Y825581D01*
X876501Y824230D01*
X885190D01*
Y832919D01*
D02*
G37*
G36*
X896419Y821690D02*
X887730D01*
Y813001D01*
X889081Y813178D01*
X891523Y814190D01*
X893621Y815799D01*
X895230Y817897D01*
X896242Y820339D01*
X896419Y821690D01*
D02*
G37*
G36*
X885190D02*
X876501D01*
X876678Y820339D01*
X877690Y817897D01*
X879299Y815799D01*
X881397Y814190D01*
X883839Y813178D01*
X885190Y813001D01*
Y821690D01*
D02*
G37*
G36*
X586270Y817438D02*
Y811270D01*
X592438D01*
X592346Y811968D01*
X591586Y813802D01*
X590377Y815377D01*
X588802Y816586D01*
X586968Y817346D01*
X586270Y817438D01*
D02*
G37*
G36*
X583730D02*
X583032Y817346D01*
X581197Y816586D01*
X579622Y815377D01*
X578414Y813802D01*
X577654Y811968D01*
X577562Y811270D01*
X583730D01*
Y817438D01*
D02*
G37*
G36*
X556270D02*
Y811270D01*
X562438D01*
X562346Y811968D01*
X561586Y813802D01*
X560377Y815377D01*
X558802Y816586D01*
X556968Y817346D01*
X556270Y817438D01*
D02*
G37*
G36*
X553730D02*
X553032Y817346D01*
X551197Y816586D01*
X549622Y815377D01*
X548414Y813802D01*
X547654Y811968D01*
X547562Y811270D01*
X553730D01*
Y817438D01*
D02*
G37*
G36*
X526270D02*
Y811270D01*
X532438D01*
X532346Y811968D01*
X531586Y813802D01*
X530377Y815377D01*
X528802Y816586D01*
X526968Y817346D01*
X526270Y817438D01*
D02*
G37*
G36*
X523730D02*
X523032Y817346D01*
X521197Y816586D01*
X519622Y815377D01*
X518414Y813802D01*
X517654Y811968D01*
X517562Y811270D01*
X523730D01*
Y817438D01*
D02*
G37*
G36*
X496270D02*
Y811270D01*
X502438D01*
X502346Y811968D01*
X501586Y813802D01*
X500377Y815377D01*
X498802Y816586D01*
X496968Y817346D01*
X496270Y817438D01*
D02*
G37*
G36*
X493730D02*
X493032Y817346D01*
X491197Y816586D01*
X489622Y815377D01*
X488414Y813802D01*
X487654Y811968D01*
X487562Y811270D01*
X493730D01*
Y817438D01*
D02*
G37*
G36*
X466270D02*
Y811270D01*
X472438D01*
X472346Y811968D01*
X471586Y813802D01*
X470377Y815377D01*
X468802Y816586D01*
X466968Y817346D01*
X466270Y817438D01*
D02*
G37*
G36*
X463730D02*
X463032Y817346D01*
X461197Y816586D01*
X459622Y815377D01*
X458414Y813802D01*
X457654Y811968D01*
X457562Y811270D01*
X463730D01*
Y817438D01*
D02*
G37*
G36*
X592438Y808730D02*
X586270D01*
Y802562D01*
X586968Y802654D01*
X588802Y803414D01*
X590377Y804622D01*
X591586Y806197D01*
X592346Y808031D01*
X592438Y808730D01*
D02*
G37*
G36*
X583730D02*
X577562D01*
X577654Y808031D01*
X578414Y806197D01*
X579622Y804622D01*
X581197Y803414D01*
X583032Y802654D01*
X583730Y802562D01*
Y808730D01*
D02*
G37*
G36*
X562438D02*
X556270D01*
Y802562D01*
X556968Y802654D01*
X558802Y803414D01*
X560377Y804622D01*
X561586Y806197D01*
X562346Y808031D01*
X562438Y808730D01*
D02*
G37*
G36*
X553730D02*
X547562D01*
X547654Y808031D01*
X548414Y806197D01*
X549622Y804622D01*
X551197Y803414D01*
X553032Y802654D01*
X553730Y802562D01*
Y808730D01*
D02*
G37*
G36*
X532438D02*
X526270D01*
Y802562D01*
X526968Y802654D01*
X528802Y803414D01*
X530377Y804622D01*
X531586Y806197D01*
X532346Y808031D01*
X532438Y808730D01*
D02*
G37*
G36*
X523730D02*
X517562D01*
X517654Y808031D01*
X518414Y806197D01*
X519622Y804622D01*
X521197Y803414D01*
X523032Y802654D01*
X523730Y802562D01*
Y808730D01*
D02*
G37*
G36*
X502438D02*
X496270D01*
Y802562D01*
X496968Y802654D01*
X498802Y803414D01*
X500377Y804622D01*
X501586Y806197D01*
X502346Y808031D01*
X502438Y808730D01*
D02*
G37*
G36*
X493730D02*
X487562D01*
X487654Y808031D01*
X488414Y806197D01*
X489622Y804622D01*
X491197Y803414D01*
X493032Y802654D01*
X493730Y802562D01*
Y808730D01*
D02*
G37*
G36*
X472438D02*
X466270D01*
Y802562D01*
X466968Y802654D01*
X468802Y803414D01*
X470377Y804622D01*
X471586Y806197D01*
X472346Y808031D01*
X472438Y808730D01*
D02*
G37*
G36*
X463730D02*
X457562D01*
X457654Y808031D01*
X458414Y806197D01*
X459622Y804622D01*
X461197Y803414D01*
X463032Y802654D01*
X463730Y802562D01*
Y808730D01*
D02*
G37*
G36*
X776630Y800520D02*
X765050D01*
Y784440D01*
X769720D01*
X769817Y784421D01*
X769914Y784440D01*
X770648D01*
X770762Y784361D01*
X771557Y783688D01*
X772492Y782753D01*
X771507Y781469D01*
X770611Y779307D01*
X770305Y776986D01*
X770611Y774665D01*
X771379Y772810D01*
X770810Y771540D01*
X766960D01*
Y763270D01*
X773730D01*
Y768620D01*
X775000Y769133D01*
X776951Y768325D01*
X779272Y768019D01*
X781593Y768325D01*
X783755Y769221D01*
X785612Y770646D01*
X787037Y772503D01*
X787933Y774665D01*
X788239Y776986D01*
X787933Y779307D01*
X787037Y781469D01*
X785612Y783326D01*
X783755Y784751D01*
X781821Y785553D01*
X781461Y786014D01*
X781442Y786070D01*
X782336Y787340D01*
X805094D01*
X805525Y786070D01*
X804622Y785377D01*
X803414Y783802D01*
X802654Y781968D01*
X802562Y781270D01*
X817438D01*
X817346Y781968D01*
X816586Y783802D01*
X815377Y785377D01*
X814474Y786070D01*
X814905Y787340D01*
X824620D01*
Y782370D01*
X846700D01*
Y798450D01*
X824620D01*
Y795579D01*
X776630D01*
Y800520D01*
D02*
G37*
G36*
X601270Y787438D02*
Y781270D01*
X607438D01*
X607346Y781968D01*
X606586Y783802D01*
X605377Y785377D01*
X603802Y786586D01*
X601968Y787346D01*
X601270Y787438D01*
D02*
G37*
G36*
X598730D02*
X598032Y787346D01*
X596197Y786586D01*
X594622Y785377D01*
X593414Y783802D01*
X592654Y781968D01*
X592562Y781270D01*
X598730D01*
Y787438D01*
D02*
G37*
G36*
X571270D02*
Y781270D01*
X577438D01*
X577346Y781968D01*
X576586Y783802D01*
X575377Y785377D01*
X573802Y786586D01*
X571968Y787346D01*
X571270Y787438D01*
D02*
G37*
G36*
X568730D02*
X568032Y787346D01*
X566197Y786586D01*
X564622Y785377D01*
X563414Y783802D01*
X562654Y781968D01*
X562562Y781270D01*
X568730D01*
Y787438D01*
D02*
G37*
G36*
X541270D02*
Y781270D01*
X547438D01*
X547346Y781968D01*
X546586Y783802D01*
X545377Y785377D01*
X543802Y786586D01*
X541968Y787346D01*
X541270Y787438D01*
D02*
G37*
G36*
X538730D02*
X538032Y787346D01*
X536197Y786586D01*
X534622Y785377D01*
X533414Y783802D01*
X532654Y781968D01*
X532562Y781270D01*
X538730D01*
Y787438D01*
D02*
G37*
G36*
X511270D02*
Y781270D01*
X517438D01*
X517346Y781968D01*
X516586Y783802D01*
X515377Y785377D01*
X513802Y786586D01*
X511968Y787346D01*
X511270Y787438D01*
D02*
G37*
G36*
X508730D02*
X508032Y787346D01*
X506197Y786586D01*
X504622Y785377D01*
X503414Y783802D01*
X502654Y781968D01*
X502562Y781270D01*
X508730D01*
Y787438D01*
D02*
G37*
G36*
X481270D02*
Y781270D01*
X487438D01*
X487346Y781968D01*
X486586Y783802D01*
X485377Y785377D01*
X483802Y786586D01*
X481968Y787346D01*
X481270Y787438D01*
D02*
G37*
G36*
X478730D02*
X478032Y787346D01*
X476197Y786586D01*
X474622Y785377D01*
X473414Y783802D01*
X472654Y781968D01*
X472562Y781270D01*
X478730D01*
Y787438D01*
D02*
G37*
G36*
X451270D02*
Y781270D01*
X457438D01*
X457346Y781968D01*
X456586Y783802D01*
X455377Y785377D01*
X453802Y786586D01*
X451968Y787346D01*
X451270Y787438D01*
D02*
G37*
G36*
X448730D02*
X448032Y787346D01*
X446197Y786586D01*
X444622Y785377D01*
X443414Y783802D01*
X442654Y781968D01*
X442562Y781270D01*
X448730D01*
Y787438D01*
D02*
G37*
G36*
X732790Y787309D02*
Y779780D01*
X740320D01*
X740181Y780831D01*
X739285Y782993D01*
X737860Y784850D01*
X736003Y786275D01*
X733841Y787171D01*
X732790Y787309D01*
D02*
G37*
G36*
X730250D02*
X729199Y787171D01*
X727037Y786275D01*
X725180Y784850D01*
X723755Y782993D01*
X722859Y780831D01*
X722720Y779780D01*
X730250D01*
Y787309D01*
D02*
G37*
G36*
X817438Y778730D02*
X811270D01*
Y772562D01*
X811968Y772654D01*
X813802Y773414D01*
X815377Y774622D01*
X816586Y776197D01*
X817346Y778031D01*
X817438Y778730D01*
D02*
G37*
G36*
X808730D02*
X802562D01*
X802654Y778031D01*
X803414Y776197D01*
X804622Y774622D01*
X806197Y773414D01*
X808031Y772654D01*
X808730Y772562D01*
Y778730D01*
D02*
G37*
G36*
X607438D02*
X601270D01*
Y772562D01*
X601968Y772654D01*
X603802Y773414D01*
X605377Y774622D01*
X606586Y776197D01*
X607346Y778031D01*
X607438Y778730D01*
D02*
G37*
G36*
X598730D02*
X592562D01*
X592654Y778031D01*
X593414Y776197D01*
X594622Y774622D01*
X596197Y773414D01*
X598032Y772654D01*
X598730Y772562D01*
Y778730D01*
D02*
G37*
G36*
X577438D02*
X571270D01*
Y772562D01*
X571968Y772654D01*
X573802Y773414D01*
X575377Y774622D01*
X576586Y776197D01*
X577346Y778031D01*
X577438Y778730D01*
D02*
G37*
G36*
X568730D02*
X562562D01*
X562654Y778031D01*
X563414Y776197D01*
X564622Y774622D01*
X566197Y773414D01*
X568032Y772654D01*
X568730Y772562D01*
Y778730D01*
D02*
G37*
G36*
X547438D02*
X541270D01*
Y772562D01*
X541968Y772654D01*
X543802Y773414D01*
X545377Y774622D01*
X546586Y776197D01*
X547346Y778031D01*
X547438Y778730D01*
D02*
G37*
G36*
X538730D02*
X532562D01*
X532654Y778031D01*
X533414Y776197D01*
X534622Y774622D01*
X536197Y773414D01*
X538032Y772654D01*
X538730Y772562D01*
Y778730D01*
D02*
G37*
G36*
X517438D02*
X511270D01*
Y772562D01*
X511968Y772654D01*
X513802Y773414D01*
X515377Y774622D01*
X516586Y776197D01*
X517346Y778031D01*
X517438Y778730D01*
D02*
G37*
G36*
X508730D02*
X502562D01*
X502654Y778031D01*
X503414Y776197D01*
X504622Y774622D01*
X506197Y773414D01*
X508032Y772654D01*
X508730Y772562D01*
Y778730D01*
D02*
G37*
G36*
X487438D02*
X481270D01*
Y772562D01*
X481968Y772654D01*
X483802Y773414D01*
X485377Y774622D01*
X486586Y776197D01*
X487346Y778031D01*
X487438Y778730D01*
D02*
G37*
G36*
X478730D02*
X472562D01*
X472654Y778031D01*
X473414Y776197D01*
X474622Y774622D01*
X476197Y773414D01*
X478032Y772654D01*
X478730Y772562D01*
Y778730D01*
D02*
G37*
G36*
X457438D02*
X451270D01*
Y772562D01*
X451968Y772654D01*
X453802Y773414D01*
X455377Y774622D01*
X456586Y776197D01*
X457346Y778031D01*
X457438Y778730D01*
D02*
G37*
G36*
X448730D02*
X442562D01*
X442654Y778031D01*
X443414Y776197D01*
X444622Y774622D01*
X446197Y773414D01*
X448032Y772654D01*
X448730Y772562D01*
Y778730D01*
D02*
G37*
G36*
X757630Y800520D02*
X746050D01*
Y784440D01*
X747721D01*
Y771540D01*
X742650D01*
Y753185D01*
X739140D01*
X738363Y753030D01*
X735405Y755989D01*
Y768682D01*
X735434Y768834D01*
X735512Y769088D01*
X735641Y769394D01*
X735830Y769752D01*
X736082Y770154D01*
X736383Y770570D01*
X737272Y771609D01*
X737703Y772049D01*
X737860Y772170D01*
X739285Y774027D01*
X740181Y776189D01*
X740320Y777240D01*
X722720D01*
X722859Y776189D01*
X723755Y774027D01*
X725180Y772170D01*
X725317Y772064D01*
X726267Y771054D01*
X726638Y770598D01*
X726958Y770154D01*
X727210Y769752D01*
X727399Y769394D01*
X727528Y769088D01*
X727606Y768834D01*
X727635Y768682D01*
Y754380D01*
X727931Y752893D01*
X728773Y751633D01*
X734071Y746335D01*
X735331Y745493D01*
X736818Y745197D01*
X738922D01*
X740018Y745415D01*
X763052D01*
X764539Y745711D01*
X765799Y746553D01*
X767287Y748041D01*
X768129Y749301D01*
X768425Y750788D01*
Y752460D01*
X773730D01*
Y760730D01*
X765690D01*
Y762000D01*
X764420D01*
Y771540D01*
X755959D01*
Y784440D01*
X757630D01*
Y800520D01*
D02*
G37*
G36*
X856270Y757438D02*
Y751270D01*
X862438D01*
X862346Y751968D01*
X861586Y753802D01*
X860377Y755377D01*
X858802Y756586D01*
X856968Y757346D01*
X856270Y757438D01*
D02*
G37*
G36*
X853730D02*
X853031Y757346D01*
X851197Y756586D01*
X849622Y755377D01*
X848414Y753802D01*
X847654Y751968D01*
X847562Y751270D01*
X853730D01*
Y757438D01*
D02*
G37*
G36*
X616270D02*
Y751270D01*
X622438D01*
X622346Y751968D01*
X621586Y753802D01*
X620377Y755377D01*
X618802Y756586D01*
X616968Y757346D01*
X616270Y757438D01*
D02*
G37*
G36*
X613730D02*
X613032Y757346D01*
X611197Y756586D01*
X609622Y755377D01*
X608414Y753802D01*
X607654Y751968D01*
X607562Y751270D01*
X613730D01*
Y757438D01*
D02*
G37*
G36*
X586270D02*
Y751270D01*
X592438D01*
X592346Y751968D01*
X591586Y753802D01*
X590377Y755377D01*
X588802Y756586D01*
X586968Y757346D01*
X586270Y757438D01*
D02*
G37*
G36*
X583730D02*
X583032Y757346D01*
X581197Y756586D01*
X579622Y755377D01*
X578414Y753802D01*
X577654Y751968D01*
X577562Y751270D01*
X583730D01*
Y757438D01*
D02*
G37*
G36*
X556270D02*
Y751270D01*
X562438D01*
X562346Y751968D01*
X561586Y753802D01*
X560377Y755377D01*
X558802Y756586D01*
X556968Y757346D01*
X556270Y757438D01*
D02*
G37*
G36*
X553730D02*
X553032Y757346D01*
X551197Y756586D01*
X549622Y755377D01*
X548414Y753802D01*
X547654Y751968D01*
X547562Y751270D01*
X553730D01*
Y757438D01*
D02*
G37*
G36*
X526270D02*
Y751270D01*
X532438D01*
X532346Y751968D01*
X531586Y753802D01*
X530377Y755377D01*
X528802Y756586D01*
X526968Y757346D01*
X526270Y757438D01*
D02*
G37*
G36*
X523730D02*
X523032Y757346D01*
X521197Y756586D01*
X519622Y755377D01*
X518414Y753802D01*
X517654Y751968D01*
X517562Y751270D01*
X523730D01*
Y757438D01*
D02*
G37*
G36*
X496270D02*
Y751270D01*
X502438D01*
X502346Y751968D01*
X501586Y753802D01*
X500377Y755377D01*
X498802Y756586D01*
X496968Y757346D01*
X496270Y757438D01*
D02*
G37*
G36*
X493730D02*
X493032Y757346D01*
X491197Y756586D01*
X489622Y755377D01*
X488414Y753802D01*
X487654Y751968D01*
X487562Y751270D01*
X493730D01*
Y757438D01*
D02*
G37*
G36*
X466270D02*
Y751270D01*
X472438D01*
X472346Y751968D01*
X471586Y753802D01*
X470377Y755377D01*
X468802Y756586D01*
X466968Y757346D01*
X466270Y757438D01*
D02*
G37*
G36*
X463730D02*
X463032Y757346D01*
X461197Y756586D01*
X459622Y755377D01*
X458414Y753802D01*
X457654Y751968D01*
X457562Y751270D01*
X463730D01*
Y757438D01*
D02*
G37*
G36*
X862438Y748730D02*
X856270D01*
Y742562D01*
X856968Y742654D01*
X858802Y743414D01*
X860377Y744622D01*
X861586Y746197D01*
X862346Y748031D01*
X862438Y748730D01*
D02*
G37*
G36*
X853730D02*
X847562D01*
X847654Y748031D01*
X848414Y746197D01*
X849622Y744622D01*
X851197Y743414D01*
X853031Y742654D01*
X853730Y742562D01*
Y748730D01*
D02*
G37*
G36*
X622438D02*
X616270D01*
Y742562D01*
X616968Y742654D01*
X618802Y743414D01*
X620377Y744622D01*
X621586Y746197D01*
X622346Y748031D01*
X622438Y748730D01*
D02*
G37*
G36*
X613730D02*
X607562D01*
X607654Y748031D01*
X608414Y746197D01*
X609622Y744622D01*
X611197Y743414D01*
X613032Y742654D01*
X613730Y742562D01*
Y748730D01*
D02*
G37*
G36*
X592438D02*
X586270D01*
Y742562D01*
X586968Y742654D01*
X588802Y743414D01*
X590377Y744622D01*
X591586Y746197D01*
X592346Y748031D01*
X592438Y748730D01*
D02*
G37*
G36*
X583730D02*
X577562D01*
X577654Y748031D01*
X578414Y746197D01*
X579622Y744622D01*
X581197Y743414D01*
X583032Y742654D01*
X583730Y742562D01*
Y748730D01*
D02*
G37*
G36*
X562438D02*
X556270D01*
Y742562D01*
X556968Y742654D01*
X558802Y743414D01*
X560377Y744622D01*
X561586Y746197D01*
X562346Y748031D01*
X562438Y748730D01*
D02*
G37*
G36*
X553730D02*
X547562D01*
X547654Y748031D01*
X548414Y746197D01*
X549622Y744622D01*
X551197Y743414D01*
X553032Y742654D01*
X553730Y742562D01*
Y748730D01*
D02*
G37*
G36*
X532438D02*
X526270D01*
Y742562D01*
X526968Y742654D01*
X528802Y743414D01*
X530377Y744622D01*
X531586Y746197D01*
X532346Y748031D01*
X532438Y748730D01*
D02*
G37*
G36*
X523730D02*
X517562D01*
X517654Y748031D01*
X518414Y746197D01*
X519622Y744622D01*
X521197Y743414D01*
X523032Y742654D01*
X523730Y742562D01*
Y748730D01*
D02*
G37*
G36*
X502438D02*
X496270D01*
Y742562D01*
X496968Y742654D01*
X498802Y743414D01*
X500377Y744622D01*
X501586Y746197D01*
X502346Y748031D01*
X502438Y748730D01*
D02*
G37*
G36*
X493730D02*
X487562D01*
X487654Y748031D01*
X488414Y746197D01*
X489622Y744622D01*
X491197Y743414D01*
X493032Y742654D01*
X493730Y742562D01*
Y748730D01*
D02*
G37*
G36*
X472438D02*
X466270D01*
Y742562D01*
X466968Y742654D01*
X468802Y743414D01*
X470377Y744622D01*
X471586Y746197D01*
X472346Y748031D01*
X472438Y748730D01*
D02*
G37*
G36*
X463730D02*
X457562D01*
X457654Y748031D01*
X458414Y746197D01*
X459622Y744622D01*
X461197Y743414D01*
X463032Y742654D01*
X463730Y742562D01*
Y748730D01*
D02*
G37*
G36*
X871270Y727438D02*
Y721270D01*
X877438D01*
X877346Y721968D01*
X876586Y723802D01*
X875377Y725377D01*
X873802Y726586D01*
X871968Y727346D01*
X871270Y727438D01*
D02*
G37*
G36*
X868730D02*
X868031Y727346D01*
X866197Y726586D01*
X864622Y725377D01*
X863414Y723802D01*
X862654Y721968D01*
X862562Y721270D01*
X868730D01*
Y727438D01*
D02*
G37*
G36*
X661270D02*
Y721270D01*
X667438D01*
X667346Y721968D01*
X666586Y723802D01*
X665377Y725377D01*
X663802Y726586D01*
X661968Y727346D01*
X661270Y727438D01*
D02*
G37*
G36*
X658730D02*
X658031Y727346D01*
X656197Y726586D01*
X654622Y725377D01*
X653414Y723802D01*
X652654Y721968D01*
X652562Y721270D01*
X658730D01*
Y727438D01*
D02*
G37*
G36*
X631270D02*
Y721270D01*
X637438D01*
X637346Y721968D01*
X636586Y723802D01*
X635377Y725377D01*
X633802Y726586D01*
X631968Y727346D01*
X631270Y727438D01*
D02*
G37*
G36*
X628730D02*
X628032Y727346D01*
X626197Y726586D01*
X624622Y725377D01*
X623414Y723802D01*
X622654Y721968D01*
X622562Y721270D01*
X628730D01*
Y727438D01*
D02*
G37*
G36*
X601270D02*
Y721270D01*
X607438D01*
X607346Y721968D01*
X606586Y723802D01*
X605377Y725377D01*
X603802Y726586D01*
X601968Y727346D01*
X601270Y727438D01*
D02*
G37*
G36*
X598730D02*
X598032Y727346D01*
X596197Y726586D01*
X594622Y725377D01*
X593414Y723802D01*
X592654Y721968D01*
X592562Y721270D01*
X598730D01*
Y727438D01*
D02*
G37*
G36*
X571270D02*
Y721270D01*
X577438D01*
X577346Y721968D01*
X576586Y723802D01*
X575377Y725377D01*
X573802Y726586D01*
X571968Y727346D01*
X571270Y727438D01*
D02*
G37*
G36*
X568730D02*
X568032Y727346D01*
X566197Y726586D01*
X564622Y725377D01*
X563414Y723802D01*
X562654Y721968D01*
X562562Y721270D01*
X568730D01*
Y727438D01*
D02*
G37*
G36*
X541270D02*
Y721270D01*
X547438D01*
X547346Y721968D01*
X546586Y723802D01*
X545377Y725377D01*
X543802Y726586D01*
X541968Y727346D01*
X541270Y727438D01*
D02*
G37*
G36*
X538730D02*
X538032Y727346D01*
X536197Y726586D01*
X534622Y725377D01*
X533414Y723802D01*
X532654Y721968D01*
X532562Y721270D01*
X538730D01*
Y727438D01*
D02*
G37*
G36*
X511270D02*
Y721270D01*
X517438D01*
X517346Y721968D01*
X516586Y723802D01*
X515377Y725377D01*
X513802Y726586D01*
X511968Y727346D01*
X511270Y727438D01*
D02*
G37*
G36*
X508730D02*
X508032Y727346D01*
X506197Y726586D01*
X504622Y725377D01*
X503414Y723802D01*
X502654Y721968D01*
X502562Y721270D01*
X508730D01*
Y727438D01*
D02*
G37*
G36*
X481270D02*
Y721270D01*
X487438D01*
X487346Y721968D01*
X486586Y723802D01*
X485377Y725377D01*
X483802Y726586D01*
X481968Y727346D01*
X481270Y727438D01*
D02*
G37*
G36*
X478730D02*
X478032Y727346D01*
X476197Y726586D01*
X474622Y725377D01*
X473414Y723802D01*
X472654Y721968D01*
X472562Y721270D01*
X478730D01*
Y727438D01*
D02*
G37*
G36*
X451270D02*
Y721270D01*
X457438D01*
X457346Y721968D01*
X456586Y723802D01*
X455377Y725377D01*
X453802Y726586D01*
X451968Y727346D01*
X451270Y727438D01*
D02*
G37*
G36*
X448730D02*
X448032Y727346D01*
X446197Y726586D01*
X444622Y725377D01*
X443414Y723802D01*
X442654Y721968D01*
X442562Y721270D01*
X448730D01*
Y727438D01*
D02*
G37*
G36*
X667438Y718730D02*
X661270D01*
Y712562D01*
X661968Y712654D01*
X663802Y713414D01*
X665377Y714622D01*
X666586Y716197D01*
X667346Y718031D01*
X667438Y718730D01*
D02*
G37*
G36*
X658730D02*
X652562D01*
X652654Y718031D01*
X653414Y716197D01*
X654622Y714622D01*
X656197Y713414D01*
X658031Y712654D01*
X658730Y712562D01*
Y718730D01*
D02*
G37*
G36*
X637438D02*
X631270D01*
Y712562D01*
X631968Y712654D01*
X633802Y713414D01*
X635377Y714622D01*
X636586Y716197D01*
X637346Y718031D01*
X637438Y718730D01*
D02*
G37*
G36*
X628730D02*
X622562D01*
X622654Y718031D01*
X623414Y716197D01*
X624622Y714622D01*
X626197Y713414D01*
X628032Y712654D01*
X628730Y712562D01*
Y718730D01*
D02*
G37*
G36*
X607438D02*
X601270D01*
Y712562D01*
X601968Y712654D01*
X603802Y713414D01*
X605377Y714622D01*
X606586Y716197D01*
X607346Y718031D01*
X607438Y718730D01*
D02*
G37*
G36*
X598730D02*
X592562D01*
X592654Y718031D01*
X593414Y716197D01*
X594622Y714622D01*
X596197Y713414D01*
X598032Y712654D01*
X598730Y712562D01*
Y718730D01*
D02*
G37*
G36*
X577438D02*
X571270D01*
Y712562D01*
X571968Y712654D01*
X573802Y713414D01*
X575377Y714622D01*
X576586Y716197D01*
X577346Y718031D01*
X577438Y718730D01*
D02*
G37*
G36*
X568730D02*
X562562D01*
X562654Y718031D01*
X563414Y716197D01*
X564622Y714622D01*
X566197Y713414D01*
X568032Y712654D01*
X568730Y712562D01*
Y718730D01*
D02*
G37*
G36*
X547438D02*
X541270D01*
Y712562D01*
X541968Y712654D01*
X543802Y713414D01*
X545377Y714622D01*
X546586Y716197D01*
X547346Y718031D01*
X547438Y718730D01*
D02*
G37*
G36*
X538730D02*
X532562D01*
X532654Y718031D01*
X533414Y716197D01*
X534622Y714622D01*
X536197Y713414D01*
X538032Y712654D01*
X538730Y712562D01*
Y718730D01*
D02*
G37*
G36*
X517438D02*
X511270D01*
Y712562D01*
X511968Y712654D01*
X513802Y713414D01*
X515377Y714622D01*
X516586Y716197D01*
X517346Y718031D01*
X517438Y718730D01*
D02*
G37*
G36*
X508730D02*
X502562D01*
X502654Y718031D01*
X503414Y716197D01*
X504622Y714622D01*
X506197Y713414D01*
X508032Y712654D01*
X508730Y712562D01*
Y718730D01*
D02*
G37*
G36*
X487438D02*
X481270D01*
Y712562D01*
X481968Y712654D01*
X483802Y713414D01*
X485377Y714622D01*
X486586Y716197D01*
X487346Y718031D01*
X487438Y718730D01*
D02*
G37*
G36*
X478730D02*
X472562D01*
X472654Y718031D01*
X473414Y716197D01*
X474622Y714622D01*
X476197Y713414D01*
X478032Y712654D01*
X478730Y712562D01*
Y718730D01*
D02*
G37*
G36*
X457438D02*
X451270D01*
Y712562D01*
X451968Y712654D01*
X453802Y713414D01*
X455377Y714622D01*
X456586Y716197D01*
X457346Y718031D01*
X457438Y718730D01*
D02*
G37*
G36*
X448730D02*
X442562D01*
X442654Y718031D01*
X443414Y716197D01*
X444622Y714622D01*
X446197Y713414D01*
X448032Y712654D01*
X448730Y712562D01*
Y718730D01*
D02*
G37*
%LPD*%
G36*
X827221Y788459D02*
X827191Y788744D01*
X827100Y788999D01*
X826948Y789224D01*
X826736Y789419D01*
X826463Y789584D01*
X826130Y789719D01*
X825736Y789824D01*
X825282Y789899D01*
X824766Y789944D01*
X824191Y789959D01*
Y792959D01*
X824766Y792974D01*
X825282Y793019D01*
X825736Y793094D01*
X826130Y793199D01*
X826463Y793334D01*
X826736Y793499D01*
X826948Y793694D01*
X827100Y793919D01*
X827191Y794174D01*
X827221Y794459D01*
Y788459D01*
D02*
G37*
G36*
X774060Y794174D02*
X774150Y793919D01*
X774302Y793694D01*
X774514Y793499D01*
X774787Y793334D01*
X775120Y793199D01*
X775514Y793094D01*
X775969Y793019D01*
X776484Y792974D01*
X777060Y792959D01*
Y789959D01*
X776484Y789944D01*
X775969Y789899D01*
X775514Y789824D01*
X775120Y789719D01*
X774787Y789584D01*
X774514Y789419D01*
X774307Y789229D01*
X774314Y789217D01*
X774654Y788729D01*
X775078Y788198D01*
X776181Y787010D01*
X774060Y784889D01*
X773445Y785483D01*
X772342Y786416D01*
X771854Y786756D01*
X771408Y787010D01*
X771005Y787180D01*
X770644Y787265D01*
X770326D01*
X770051Y787180D01*
X769817Y787010D01*
X774029Y791223D01*
Y794459D01*
X774060Y794174D01*
D02*
G37*
%LPC*%
G36*
X774029Y791211D02*
X773890Y791020D01*
X773805Y790744D01*
Y790426D01*
X773890Y790065D01*
X774029Y789734D01*
Y791211D01*
D02*
G37*
%LPD*%
G36*
X754555Y786981D02*
X754300Y786890D01*
X754075Y786740D01*
X753880Y786531D01*
X753715Y786261D01*
X753580Y785930D01*
X753475Y785540D01*
X753400Y785090D01*
X753355Y784581D01*
X753340Y784010D01*
X750340D01*
X750325Y784581D01*
X750280Y785090D01*
X750205Y785540D01*
X750100Y785930D01*
X749965Y786261D01*
X749800Y786531D01*
X749605Y786740D01*
X749380Y786890D01*
X749125Y786981D01*
X748840Y787010D01*
X754840D01*
X754555Y786981D01*
D02*
G37*
G36*
X753355Y771394D02*
X753400Y770879D01*
X753475Y770424D01*
X753580Y770030D01*
X753715Y769697D01*
X753880Y769424D01*
X754075Y769212D01*
X754300Y769060D01*
X754555Y768969D01*
X754840Y768939D01*
X748840D01*
X749125Y768969D01*
X749380Y769060D01*
X749605Y769212D01*
X749800Y769424D01*
X749965Y769697D01*
X750100Y770030D01*
X750205Y770424D01*
X750280Y770879D01*
X750325Y771394D01*
X750340Y771970D01*
X753340D01*
X753355Y771394D01*
D02*
G37*
G36*
X735362Y773360D02*
X734346Y772173D01*
X733933Y771602D01*
X733584Y771045D01*
X733298Y770502D01*
X733076Y769975D01*
X732917Y769461D01*
X732822Y768962D01*
X732790Y768478D01*
X730250D01*
X730218Y768962D01*
X730123Y769461D01*
X729964Y769975D01*
X729742Y770502D01*
X729456Y771045D01*
X729107Y771602D01*
X728694Y772173D01*
X728218Y772759D01*
X727075Y773975D01*
X735965D01*
X735362Y773360D01*
D02*
G37*
G36*
X766839Y755035D02*
X766623Y754958D01*
X766432Y754830D01*
X766267Y754650D01*
X766127Y754418D01*
X766013Y754136D01*
X765924Y753801D01*
X765861Y753416D01*
X765823Y752979D01*
X765810Y752490D01*
X763270D01*
X763257Y752979D01*
X763219Y753416D01*
X763156Y753801D01*
X763067Y754136D01*
X762952Y754418D01*
X762813Y754650D01*
X762648Y754830D01*
X762457Y754958D01*
X762241Y755035D01*
X762000Y755061D01*
X767080D01*
X766839Y755035D01*
D02*
G37*
%LPC*%
G36*
X841270Y907438D02*
Y901270D01*
X847438D01*
X847346Y901968D01*
X846586Y903802D01*
X845377Y905377D01*
X843802Y906586D01*
X841968Y907346D01*
X841270Y907438D01*
D02*
G37*
G36*
X838730D02*
X838031Y907346D01*
X836197Y906586D01*
X834622Y905377D01*
X833414Y903802D01*
X832654Y901968D01*
X832562Y901270D01*
X838730D01*
Y907438D01*
D02*
G37*
G36*
X847438Y898730D02*
X841270D01*
Y892562D01*
X841968Y892654D01*
X843802Y893414D01*
X845377Y894622D01*
X846586Y896197D01*
X847346Y898031D01*
X847438Y898730D01*
D02*
G37*
G36*
X838730D02*
X832562D01*
X832654Y898031D01*
X833414Y896197D01*
X834622Y894622D01*
X836197Y893414D01*
X838031Y892654D01*
X838730Y892562D01*
Y898730D01*
D02*
G37*
G36*
X797560Y897800D02*
Y890270D01*
X805089D01*
X804951Y891321D01*
X804055Y893483D01*
X802630Y895340D01*
X800773Y896765D01*
X798611Y897661D01*
X797560Y897800D01*
D02*
G37*
G36*
X795020D02*
X793969Y897661D01*
X791807Y896765D01*
X789950Y895340D01*
X788525Y893483D01*
X787629Y891321D01*
X787490Y890270D01*
X795020D01*
Y897800D01*
D02*
G37*
G36*
X846700Y825450D02*
X836930D01*
Y818680D01*
X846700D01*
Y825450D01*
D02*
G37*
G36*
X805089Y887730D02*
X787490D01*
X787629Y886679D01*
X788525Y884517D01*
X789950Y882660D01*
X791807Y881235D01*
X792405Y880987D01*
Y878840D01*
X792701Y877353D01*
X793543Y876093D01*
X824545Y845091D01*
Y821640D01*
X824620Y821265D01*
Y818680D01*
X834390D01*
Y825450D01*
X832315D01*
Y846700D01*
X832019Y848187D01*
X831177Y849447D01*
X800767Y879857D01*
X800770Y880532D01*
X800974Y881388D01*
X802630Y882660D01*
X804055Y884517D01*
X804951Y886679D01*
X805089Y887730D01*
D02*
G37*
%LPD*%
D13*
X796290Y878840D02*
X828430Y846700D01*
Y821640D02*
Y846700D01*
Y821640D02*
X832660Y817410D01*
X835660D01*
X796290Y878840D02*
Y889000D01*
X690390Y735250D02*
Y735670D01*
Y735250D02*
X694120Y731520D01*
X739140D01*
X756920Y1021080D02*
X772860D01*
X825500Y971550D02*
Y977600D01*
X841160Y993260D01*
X736140Y959560D02*
X756210D01*
X770890Y944880D01*
Y920750D02*
Y944880D01*
Y920750D02*
X781670D01*
X798030Y937110D01*
X800280D01*
X841160Y993260D02*
X842010D01*
X693420Y1027430D02*
X700620Y1034630D01*
X693420Y996420D02*
Y1027430D01*
Y996420D02*
X704850Y984990D01*
Y951230D02*
Y984990D01*
X700620Y1034630D02*
X710780D01*
X715010Y1038860D01*
X704850Y951230D02*
X713180Y959560D01*
X736140D01*
X763052Y749300D02*
X764540Y750788D01*
Y760850D01*
X739140Y749300D02*
X763052D01*
X764540Y760850D02*
X765690Y762000D01*
X738922Y749082D02*
X739140Y749300D01*
X736818Y749082D02*
X738922D01*
X731520Y754380D02*
X736818Y749082D01*
X731520Y754380D02*
Y778510D01*
X762000Y708660D02*
X925830D01*
X938530Y695960D01*
X739140Y731520D02*
X762000Y708660D01*
X492700Y876240D02*
X492760Y876180D01*
D14*
X589480Y876300D02*
D03*
X614480Y866800D02*
D03*
D15*
Y885800D02*
D03*
D16*
X492760Y876180D02*
D03*
Y861180D02*
D03*
X842010Y993260D02*
D03*
Y1008260D02*
D03*
X687070Y870070D02*
D03*
Y885070D02*
D03*
X650240Y870070D02*
D03*
Y885070D02*
D03*
D17*
X530240Y876300D02*
D03*
X516240D02*
D03*
D18*
X552570D02*
D03*
X567570D02*
D03*
X721600Y883680D02*
D03*
X736600D02*
D03*
X765690Y762000D02*
D03*
X750690D02*
D03*
D19*
X715010Y1038860D02*
D03*
Y1011860D02*
D03*
X835660Y817410D02*
D03*
Y790410D02*
D03*
D20*
X690390Y808060D02*
D03*
Y735670D02*
D03*
D21*
X822780Y950110D02*
D03*
Y937110D02*
D03*
D22*
X800280D02*
D03*
Y943610D02*
D03*
Y950110D02*
D03*
D23*
X796860Y1030580D02*
D03*
Y1011580D02*
D03*
X772860D02*
D03*
Y1021080D02*
D03*
Y1030580D02*
D03*
D24*
X453450Y876240D02*
D03*
Y901640D02*
D03*
Y850840D02*
D03*
D25*
X770840Y792480D02*
D03*
X751840D02*
D03*
Y816480D02*
D03*
X761340D02*
D03*
X770840D02*
D03*
D26*
X678640Y979060D02*
D03*
Y972560D02*
D03*
Y966060D02*
D03*
Y959560D02*
D03*
Y953060D02*
D03*
Y946560D02*
D03*
Y940060D02*
D03*
Y933560D02*
D03*
X736140Y979060D02*
D03*
Y972560D02*
D03*
Y966060D02*
D03*
Y959560D02*
D03*
Y953060D02*
D03*
Y946560D02*
D03*
Y940060D02*
D03*
Y933560D02*
D03*
D27*
X638810Y954420D02*
D03*
Y940420D02*
D03*
D47*
X888340Y1026160D02*
X898144Y1016356D01*
X801280Y1026160D02*
X888340D01*
X796860Y1030580D02*
X801280Y1026160D01*
X775110Y1011580D02*
X776860Y1009830D01*
Y997095D02*
Y1009830D01*
X733200Y1003111D02*
X746680Y989631D01*
X733200Y1003111D02*
Y1026356D01*
X787320Y995036D02*
Y1030584D01*
X751840Y996300D02*
Y999165D01*
X746680Y976661D02*
Y989631D01*
X736236Y972656D02*
X742674D01*
X746680Y976661D01*
X787320Y995036D02*
X821196Y961160D01*
X875260D01*
X770835Y1009555D02*
X772860Y1011580D01*
X738740Y1017616D02*
X746801Y1009555D01*
X738740Y1017616D02*
Y1024061D01*
X746801Y1009555D02*
X770835D01*
X738740Y1024061D02*
X746990Y1032310D01*
X747010Y1032330D02*
X771110D01*
X746990Y1032310D02*
X747010Y1032330D01*
X744715Y1037870D02*
X780033D01*
X733200Y1026356D02*
X744715Y1037870D01*
X742420Y1043410D02*
X782328D01*
X715010Y1016000D02*
X742420Y1043410D01*
X715010Y1011860D02*
Y1016000D01*
X771110Y1032330D02*
X772860Y1030580D01*
Y1011580D02*
X775110D01*
X875260Y961160D02*
X886460Y949960D01*
X794610Y1030580D02*
X796860D01*
X792860Y1032330D02*
X794610Y1030580D01*
X792860Y1032330D02*
Y1032878D01*
X782328Y1043410D02*
X792860Y1032878D01*
X678640Y953060D02*
X678736Y952964D01*
X678545Y953156D02*
X678640Y953060D01*
X685174Y952964D02*
X689180Y948958D01*
X678736Y952964D02*
X685174D01*
X689180Y942520D02*
Y948958D01*
Y942520D02*
X696980Y934720D01*
X713270D01*
X725110Y946560D01*
X736140D01*
X751840Y996300D02*
X798030Y950110D01*
X586015Y1066800D02*
X673755Y979060D01*
X655229Y966060D02*
X678640D01*
X664386Y972560D02*
X678640D01*
X557530Y1066800D02*
X650790Y973540D01*
X663406D01*
X664386Y972560D01*
X506730Y1066800D02*
X611070Y962460D01*
X644983D01*
X647884Y959560D01*
X678640D01*
X532130Y1066800D02*
X630930Y968000D01*
X653289D01*
X655229Y966060D01*
X582930Y1066800D02*
X586015D01*
X673755Y979060D02*
X678640D01*
X780033Y1037870D02*
X787320Y1030584D01*
X776860Y997095D02*
X808570Y965385D01*
X748126Y946464D02*
X756060Y938530D01*
X777416Y778842D02*
X779272Y776986D01*
X777416Y778842D02*
Y783654D01*
X690390Y808060D02*
X691510Y806940D01*
X898144Y939800D02*
Y1016356D01*
Y919924D02*
Y939800D01*
X869336Y913020D02*
X891240D01*
X736140Y972560D02*
X736236Y972656D01*
X780733Y943610D02*
X800280D01*
X758283Y966060D02*
X780733Y943610D01*
X736140Y966060D02*
X758283D01*
X859790Y937260D02*
X895604D01*
X898144Y939800D01*
X808570Y952650D02*
Y965385D01*
Y952650D02*
X818069Y943150D01*
X828411D01*
X856287Y915274D01*
Y878533D02*
Y915274D01*
Y878533D02*
X886460Y848360D01*
X822780Y950110D02*
X832246D01*
X891240Y913020D02*
X898144Y919924D01*
X832246Y950110D02*
X869336Y913020D01*
X798030Y950110D02*
X800280D01*
X736236Y946464D02*
X748126D01*
X736140Y946560D02*
X736236Y946464D01*
X770840Y790230D02*
X777416Y783654D01*
X770840Y790230D02*
Y792480D01*
X751840Y816480D02*
Y868420D01*
X820530Y937110D01*
X822780D01*
X845970Y807870D02*
X886460Y848360D01*
X770840Y810260D02*
X773230Y807870D01*
X845970D01*
X770840Y810260D02*
Y816480D01*
X767520Y806940D02*
X770840Y810260D01*
X691510Y806940D02*
X767520D01*
X687070Y885070D02*
X688460Y883680D01*
X614480Y885800D02*
X615210Y885070D01*
X751840Y763150D02*
Y792480D01*
X750690Y762000D02*
X751840Y763150D01*
X796860Y1011580D02*
X838690D01*
X842010Y1008260D01*
X736140Y884140D02*
X736600Y883680D01*
X736140Y884140D02*
Y933560D01*
X492760Y876180D02*
X492880Y876300D01*
X640075Y953156D02*
X678545D01*
X638810Y954420D02*
X640075Y953156D01*
X834611Y791459D02*
X835660Y790410D01*
X771861Y791459D02*
X834611D01*
X770840Y792480D02*
X771861Y791459D01*
D48*
X453450Y876240D02*
X492700D01*
X567570Y876300D02*
X589480D01*
X688460Y883680D02*
X721600D01*
X650240Y885070D02*
X687070D01*
X615210D02*
X650240D01*
X530240Y876300D02*
X552570D01*
X492880D02*
X516240D01*
D49*
X506730Y695960D02*
D03*
Y1066800D02*
D03*
D50*
X532130Y695960D02*
D03*
X557530D02*
D03*
X582930D02*
D03*
X608330D02*
D03*
X633730D02*
D03*
X659130D02*
D03*
X684530D02*
D03*
X709930D02*
D03*
X735330D02*
D03*
X760730D02*
D03*
X786130D02*
D03*
X811530D02*
D03*
X836930D02*
D03*
X862330D02*
D03*
X887730D02*
D03*
X913130D02*
D03*
X938530D02*
D03*
X532130Y1066800D02*
D03*
X557530D02*
D03*
X582930D02*
D03*
X608330D02*
D03*
X633730D02*
D03*
X659130D02*
D03*
X684530D02*
D03*
X709930D02*
D03*
X735330D02*
D03*
X760730D02*
D03*
X786130D02*
D03*
X811530D02*
D03*
X836930D02*
D03*
X862330D02*
D03*
X887730D02*
D03*
X913130D02*
D03*
X938530D02*
D03*
X886460Y924560D02*
D03*
Y899160D02*
D03*
Y873760D02*
D03*
Y848360D02*
D03*
Y822960D02*
D03*
D51*
Y949960D02*
D03*
D52*
X796290Y889000D02*
D03*
X643890Y850900D02*
D03*
X707390Y861060D02*
D03*
X739140Y731520D02*
D03*
X817880Y1038860D02*
D03*
X751840Y999165D02*
D03*
X825500Y971550D02*
D03*
X756920Y1021080D02*
D03*
X770890Y920750D02*
D03*
X656590Y1029970D02*
D03*
X704850Y951230D02*
D03*
X731520Y778510D02*
D03*
X859790Y937260D02*
D03*
X756060Y938530D02*
D03*
X779272Y776986D02*
D03*
D53*
X750000Y900000D02*
D03*
X510000Y960000D02*
D03*
X570000Y780000D02*
D03*
X600000D02*
D03*
X555000Y990000D02*
D03*
X495000Y810000D02*
D03*
X450000Y780000D02*
D03*
X465000Y750000D02*
D03*
X585000Y930000D02*
D03*
X630000Y720000D02*
D03*
X600000Y960000D02*
D03*
X450000Y1020000D02*
D03*
X870000Y720000D02*
D03*
X570000D02*
D03*
X540000D02*
D03*
X555000Y930000D02*
D03*
X510000Y900000D02*
D03*
Y780000D02*
D03*
X840000Y900000D02*
D03*
X510000Y720000D02*
D03*
X615000Y750000D02*
D03*
X540000Y1020000D02*
D03*
X510000D02*
D03*
X540000Y960000D02*
D03*
Y840000D02*
D03*
X570000Y900000D02*
D03*
X480000Y960000D02*
D03*
X495000Y990000D02*
D03*
X465000D02*
D03*
X495000Y930000D02*
D03*
X465000D02*
D03*
Y810000D02*
D03*
Y1050000D02*
D03*
X855000Y750000D02*
D03*
X585000Y810000D02*
D03*
X495000Y750000D02*
D03*
Y1050000D02*
D03*
X480000Y1020000D02*
D03*
X525000Y990000D02*
D03*
X570000Y840000D02*
D03*
X540000Y900000D02*
D03*
X450000Y720000D02*
D03*
X555000Y810000D02*
D03*
Y750000D02*
D03*
X660000Y720000D02*
D03*
X525000Y930000D02*
D03*
X540000Y780000D02*
D03*
X510000Y840000D02*
D03*
X480000Y780000D02*
D03*
X450000Y960000D02*
D03*
X570000D02*
D03*
X885000Y990000D02*
D03*
X480000Y720000D02*
D03*
X585000Y750000D02*
D03*
X525000Y810000D02*
D03*
Y750000D02*
D03*
X810000Y780000D02*
D03*
X600000Y720000D02*
D03*
M02*
