M48
;Layer_Color=9474304
;FILE_FORMAT=4:4
METRIC
;TYPE=PLATED
T1F00S00C0.4100
T2F00S00C0.7110
T3F00S00C0.7112
T4F00S00C0.9000
%
T01
X00870000Y00720000
X00855000Y00750000
X00810000Y00780000
X00600000
X00570000
X00540000
X00510000
X00480000
X00450000
X00465000Y00750000
X00495000
X00525000
X00555000
X00585000
X00615000
X00630000Y00720000
X00660000
X00600000
X00570000
X00540000
X00510000
X00480000
X00450000
X00465000Y00810000
X00495000
X00525000
X00555000
X00585000
X00570000Y00840000
X00540000
X00510000
Y00900000
X00540000
X00570000
X00585000Y00930000
X00555000
X00525000
X00495000
X00465000
X00480000Y00960000
X00510000
X00540000
X00570000
X00600000
X00555000Y00990000
X00525000
X00495000
X00465000
X00450000Y01020000
X00480000
X00510000
X00540000
X00495000Y01050000
X00465000
X00450000Y00960000
X00750000Y00900000
X00840000
X00885000Y00990000
T02
X00756920Y01021080
T03
X00739140Y00731520
X00731520Y00778510
X00779272Y00776986
X00770890Y00920750
X00756060Y00938530
X00704850Y00951230
X00707390Y00861060
X00643890Y00850900
X00656590Y01029970
X00751840Y00999165
X00825500Y00971550
X00859790Y00937260
X00796290Y00889000
X00817880Y01038860
T04
X00811530Y00695960
X00836930
X00862330
X00887730
X00913130
X00938530
X00786130
X00760730
X00735330
X00709930
X00684530
X00659130
X00633730
X00608330
X00582930
X00557530
X00532130
X00506730
Y01066800
X00532130
X00557530
X00582930
X00608330
X00633730
X00659130
X00684530
X00709930
X00735330
X00760730
X00786130
X00811530
X00836930
X00862330
X00887730
X00913130
X00938530
X00886460Y00949960
Y00924560
Y00899160
Y00873760
Y00848360
Y00822960
M30
